<svg xmlns="http://www.w3.org/2000/svg" xmlns:xlink="http://www.w3.org/1999/xlink" width="900" height="282.23"><rect width="900" height="282.23" rx="0" ry="0" class="a"/><svg height="282.23" viewBox="0 0 90 28.223" width="900" xmlns="http://www.w3.org/2000/svg" xmlns:xlink="http://www.w3.org/1999/xlink"><style>@keyframes j{0%{transform:translateX(0)}3.81%{transform:translateX(-90px)}4.05%{transform:translateX(-540px)}7.76%{transform:translateX(-630px)}8.24%{transform:translateX(-720px)}8.61%{transform:translateX(-810px)}9.69%{transform:translateX(-900px)}10.42%{transform:translateX(-990px)}11.32%{transform:translateX(-1080px)}12.17%{transform:translateX(-1170px)}13.26%{transform:translateX(-1260px)}14.05%{transform:translateX(-1350px)}15.37%{transform:translateX(-1440px)}15.92%{transform:translateX(-1530px)}16.95%{transform:translateX(-1620px)}17.73%{transform:translateX(-1710px)}18.88%{transform:translateX(-1800px)}20.03%{transform:translateX(-1890px)}22.03%{transform:translateX(-1980px)}22.69%{transform:translateX(-2070px)}23.42%{transform:translateX(-2160px)}24.44%{transform:translateX(-2250px)}25.47%{transform:translateX(-2340px)}26.32%{transform:translateX(-2430px)}26.8%{transform:translateX(-2520px)}28.73%{transform:translateX(-2610px)}28.74%{transform:translateX(-2700px)}28.79%{transform:translateX(-2790px)}31.37%{transform:translateX(-2880px)}31.39%{transform:translateX(-2970px)}32.1%{transform:translateX(-3060px)}32.4%{transform:translateX(-3150px)}32.66%{transform:translateX(-3240px)}32.94%{transform:translateX(-3330px)}33.23%{transform:translateX(-3420px)}33.51%{transform:translateX(-3510px)}33.81%{transform:translateX(-3600px)}34.11%{transform:translateX(-3690px)}34.39%{transform:translateX(-3780px)}34.68%{transform:translateX(-3870px)}34.96%{transform:translateX(-3960px)}35.25%{transform:translateX(-4050px)}35.54%{transform:translateX(-4140px)}35.84%{transform:translateX(-4230px)}36.13%{transform:translateX(-4320px)}36.42%{transform:translateX(-4410px)}36.61%{transform:translateX(-4590px)}36.64%{transform:translateX(-4680px)}36.68%{transform:translateX(-4770px)}36.94%{transform:translateX(-5310px)}40.58%{transform:translateX(-5400px)}40.94%{transform:translateX(-5490px)}43%{transform:translateX(-5580px)}43.6%{transform:translateX(-5670px)}44.75%{transform:translateX(-5760px)}45.48%{transform:translateX(-5850px)}47.11%{transform:translateX(-5940px)}47.78%{transform:translateX(-6030px)}48.5%{transform:translateX(-6120px)}49.35%{transform:translateX(-6210px)}50.32%{transform:translateX(-6300px)}50.97%{transform:translateX(-6390px)}51.4%{transform:translateX(-6480px)}52.24%{transform:translateX(-6660px)}52.29%{transform:translateX(-6750px)}53.01%{transform:translateX(-6840px)}53.02%{transform:translateX(-7470px)}53.03%{transform:translateX(-7560px)}53.25%{transform:translateX(-8100px)}62.04%{transform:translateX(-8190px)}62.65%{transform:translateX(-8280px)}63.74%{transform:translateX(-8370px)}64.33%{transform:translateX(-8460px)}65.61%{transform:translateX(-8550px)}66.57%{transform:translateX(-8640px)}68.51%{transform:translateX(-8730px)}69.05%{transform:translateX(-8820px)}69.9%{transform:translateX(-8910px)}70.81%{transform:translateX(-9000px)}72.14%{transform:translateX(-9090px)}72.86%{transform:translateX(-9180px)}73.34%{transform:translateX(-9270px)}74.68%{transform:translateX(-9360px)}75.95%{transform:translateX(-9450px)}77.04%{transform:translateX(-9540px)}77.76%{transform:translateX(-9630px)}78.79%{transform:translateX(-9720px)}79.39%{transform:translateX(-9810px)}80.54%{transform:translateX(-9990px)}80.6%{transform:translateX(-10080px)}85.36%{transform:translateX(-10170px)}85.38%{transform:translateX(-10260px)}85.59%{transform:translateX(-10710px)}to{transform:translateX(-10800px)}}.a{fill:#282a36}.c{fill:#ff6ac1}.d{fill:#eff0eb}.e{fill:#686868}.f{fill:#57c7ff}</style><g font-size="1.67" font-family="Monaco,Consolas,Menlo,'Bitstream Vera Sans Mono','Powerline Symbols',monospace"><defs><symbol id="1"><text y="1.67" class="c">❯</text></symbol><symbol id="2"><text y="1.67" class="c">❯</text><text x="2.004" y="1.67" class="d">npm</text></symbol><symbol id="3"><text y="1.67" class="c">❯</text><text x="2.004" y="1.67" class="d">npm</text><text x="6.012" y="1.67" class="d">i</text></symbol><symbol id="4"><text y="1.67" class="c">❯</text><text x="2.004" y="1.67" class="d">npm</text><text x="6.012" y="1.67" class="d">i</text><text x="8.016" y="1.67" class="d">-g</text></symbol><symbol id="5"><text y="1.67" class="c">❯</text><text x="2.004" y="1.67" class="d">npm</text><text x="6.012" y="1.67" class="d">i</text><text x="8.016" y="1.67" class="d">-g</text><text x="11.022" y="1.67" class="d">movie-trailer</text></symbol><symbol id="6"><text y="1.67" class="d">⸨</text><text x="1.002" y="1.67" class="e">░░░░░░░░░░░░░░░░░░</text><text x="19.038" y="1.67" class="d">⸩</text><text x="21.042" y="1.67" class="d">⠧</text><text x="23.046" y="1.67" class="d">rollbackFailedOptional:</text>0<text x="47.094" y="1.67" class="f">verb</text><text x="52.104" y="1.67" class="c">npm-session</text><text x="64.128" y="1.67" class="d">5a2eda7a03291097</text></symbol><symbol id="7"><text y="1.67" class="d">⸨</text><path fill="#b9c0cb" d="M1.002 0h7v2.171h-7z"/><text x="1.002" y="1.67" class="a"></text><text x="8.016" y="1.67" class="e">░░░░░░░░░░░</text><text x="19.038" y="1.67" class="d">⸩</text><text x="21.042" y="1.67" class="d">⠼</text><text x="23.046" y="1.67" class="d">extract:movie-trailer:</text>0<text x="46.092" y="1.67" class="f">verb</text><text x="51.102" y="1.67" class="c">lock</text><text x="56.112" y="1.67" class="d">using</text><text x="62.124" y="1.67" class="d">/Users/tmorrow/.npm/_locks/</text></symbol><symbol id="8"><text y="1.67" class="d">/usr/local/bin/movie-trailer</text><text x="29.058" y="1.67" class="d">-&gt;</text><text x="32.064" y="1.67" class="d">/usr/local/lib/node_modules/movie-trailer/cli.js</text></symbol><symbol id="9"><text y="1.67" class="d">+</text><text x="2.004" y="1.67" class="d">movie-trailer@1.0.4</text></symbol><symbol id="10"><text y="1.67" class="d">added</text><text x="6.012" y="1.67" class="d">1</text><text x="8.016" y="1.67" class="d">package</text><text x="16.032" y="1.67" class="d">in</text><text x="19.038" y="1.67" class="d">0.993s</text></symbol><symbol id="11"><text y="1.67" class="c">❯</text><text x="2.004" y="1.67" class="d">m</text></symbol><symbol id="12"><text y="1.67" class="c">❯</text><text x="2.004" y="1.67" class="d">mo</text></symbol><symbol id="13"><text y="1.67" class="c">❯</text><text x="2.004" y="1.67" class="d">mov</text></symbol><symbol id="14"><text y="1.67" class="c">❯</text><text x="2.004" y="1.67" class="d">movi</text></symbol><symbol id="15"><text y="1.67" class="c">❯</text><text x="2.004" y="1.67" class="d">movie</text></symbol><symbol id="16"><text y="1.67" class="c">❯</text><text x="2.004" y="1.67" class="d">movie-</text></symbol><symbol id="17"><text y="1.67" class="c">❯</text><text x="2.004" y="1.67" class="d">movie-t</text></symbol><symbol id="18"><text y="1.67" class="c">❯</text><text x="2.004" y="1.67" class="d">movie-tr</text></symbol><symbol id="19"><text y="1.67" class="c">❯</text><text x="2.004" y="1.67" class="d">movie-tra</text></symbol><symbol id="20"><text y="1.67" class="c">❯</text><text x="2.004" y="1.67" class="d">movie-trai</text></symbol><symbol id="21"><text y="1.67" class="c">❯</text><text x="2.004" y="1.67" class="d">movie-trail</text></symbol><symbol id="22"><text y="1.67" class="c">❯</text><text x="2.004" y="1.67" class="d">movie-traile</text></symbol><symbol id="23"><text y="1.67" class="c">❯</text><text x="2.004" y="1.67" class="d">movie-trailer</text></symbol><symbol id="24"><text y="1.67" class="d">Get</text><text x="4.008" y="1.67" class="d">movie</text><text x="10.02" y="1.67" class="d">trailer</text><text x="18.036" y="1.67" class="d">url(s):</text><text x="26.052" y="1.67" class="d">Oceans</text><text x="33.066" y="1.67" class="d">Eleven</text><text x="40.08" y="1.67" class="d">➔</text><text x="42.084" y="1.67" class="d">http://path/to/trailer</text></symbol><symbol id="25"><text y="1.67" class="d">Usage</text></symbol><symbol id="26"><text x="2.004" y="1.67" class="d">$</text><text x="4.008" y="1.67" class="d">movie-trailer</text><text x="18.036" y="1.67" class="d">movie</text><text x="24.048" y="1.67" class="d">[year]</text></symbol><symbol id="27"><text y="1.67" class="d">Example</text></symbol><symbol id="28"><text x="2.004" y="1.67" class="d">$</text><text x="4.008" y="1.67" class="d">movie-trailer</text><text x="18.036" y="1.67" class="d">&apos;Oceans</text><text x="26.052" y="1.67" class="d">Eleven&apos;</text><text x="34.068" y="1.67" class="d">1960</text></symbol><symbol id="29"><text x="2.004" y="1.67" class="d">http://path/to/trailer</text></symbol><symbol id="30"><text y="1.67" class="c">❯</text><text x="2.004" y="1.67" class="d">movie-trailer</text><text x="16.032" y="1.67" class="d">crash</text></symbol><symbol id="31"><text y="1.67" class="d">https://www.youtube.com/watch?v=durNwe9pL0E</text></symbol><symbol id="a"><path fill="transparent" d="M0 0h90v13H0z"/></symbol><symbol id="b"><path fill="#97979b" d="M0 0h1.102v2.171H0z"/></symbol></defs><path class="a" d="M0 0h90v28.223H0z"/><g style="animation-duration:18.610856s;animation-iteration-count:infinite;animation-name:j;animation-timing-function:steps(1,end)"><svg width="10890"><svg><use xlink:href="#a"/><use xlink:href="#b" x="-.004"/></svg><svg x="90"><use xlink:href="#a"/><use xlink:href="#b" x="-.004"/></svg><svg x="180"><use xlink:href="#a"/><use xlink:href="#b" x="-.004" y="4.317"/></svg><svg x="270"><use xlink:href="#a"/><use xlink:href="#b" x="-.004" y="4.317"/></svg><svg x="360"><use xlink:href="#a"/><use xlink:href="#b" x="1.996" y="4.317"/><use xlink:href="#1" y="4.342"/></svg><svg x="450"><use xlink:href="#a"/><use xlink:href="#b" x="1.996" y="4.317"/><use xlink:href="#1" y="4.342"/></svg><svg x="540"><use xlink:href="#a"/><use xlink:href="#b" x="1.996" y="4.317"/><use xlink:href="#1" y="4.342"/></svg><svg x="630"><use xlink:href="#a"/><use xlink:href="#b" x="2.996" y="4.317"/><text y="6.012" class="c">❯</text><text x="2.004" y="6.012" class="d">n</text></svg><svg x="720"><use xlink:href="#a"/><use xlink:href="#b" x="3.996" y="4.317"/><text y="6.012" class="c">❯</text><text x="2.004" y="6.012" class="d">np</text></svg><svg x="810"><use xlink:href="#a"/><use xlink:href="#b" x="4.996" y="4.317"/><use xlink:href="#2" y="4.342"/></svg><svg x="900"><use xlink:href="#a"/><use xlink:href="#b" x="5.996" y="4.317"/><use xlink:href="#2" y="4.342"/></svg><svg x="990"><use xlink:href="#a"/><use xlink:href="#b" x="6.996" y="4.317"/><use xlink:href="#3" y="4.342"/></svg><svg x="1080"><use xlink:href="#a"/><use xlink:href="#b" x="7.996" y="4.317"/><use xlink:href="#3" y="4.342"/></svg><svg x="1170"><use xlink:href="#a"/><use xlink:href="#b" x="8.996" y="4.317"/><text y="6.012" class="c">❯</text><text x="2.004" y="6.012" class="d">npm</text><text x="6.012" y="6.012" class="d">i</text><text x="8.016" y="6.012" class="d">-</text></svg><svg x="1260"><use xlink:href="#a"/><use xlink:href="#b" x="9.996" y="4.317"/><use xlink:href="#4" y="4.342"/></svg><svg x="1350"><use xlink:href="#a"/><use xlink:href="#b" x="10.996" y="4.317"/><use xlink:href="#4" y="4.342"/></svg><svg x="1440"><use xlink:href="#a"/><use xlink:href="#b" x="11.996" y="4.317"/><text y="6.012" class="c">❯</text><text x="2.004" y="6.012" class="d">npm</text><text x="6.012" y="6.012" class="d">i</text><text x="8.016" y="6.012" class="d">-g</text><text x="11.022" y="6.012" class="d">m</text></svg><svg x="1530"><use xlink:href="#a"/><use xlink:href="#b" x="12.996" y="4.317"/><text y="6.012" class="c">❯</text><text x="2.004" y="6.012" class="d">npm</text><text x="6.012" y="6.012" class="d">i</text><text x="8.016" y="6.012" class="d">-g</text><text x="11.022" y="6.012" class="d">mo</text></svg><svg x="1620"><use xlink:href="#a"/><use xlink:href="#b" x="13.996" y="4.317"/><text y="6.012" class="c">❯</text><text x="2.004" y="6.012" class="d">npm</text><text x="6.012" y="6.012" class="d">i</text><text x="8.016" y="6.012" class="d">-g</text><text x="11.022" y="6.012" class="d">mov</text></svg><svg x="1710"><use xlink:href="#a"/><use xlink:href="#b" x="14.996" y="4.317"/><text y="6.012" class="c">❯</text><text x="2.004" y="6.012" class="d">npm</text><text x="6.012" y="6.012" class="d">i</text><text x="8.016" y="6.012" class="d">-g</text><text x="11.022" y="6.012" class="d">movi</text></svg><svg x="1800"><use xlink:href="#a"/><use xlink:href="#b" x="15.996" y="4.317"/><text y="6.012" class="c">❯</text><text x="2.004" y="6.012" class="d">npm</text><text x="6.012" y="6.012" class="d">i</text><text x="8.016" y="6.012" class="d">-g</text><text x="11.022" y="6.012" class="d">movie</text></svg><svg x="1890"><use xlink:href="#a"/><use xlink:href="#b" x="16.996" y="4.317"/><text y="6.012" class="c">❯</text><text x="2.004" y="6.012" class="d">npm</text><text x="6.012" y="6.012" class="d">i</text><text x="8.016" y="6.012" class="d">-g</text><text x="11.022" y="6.012" class="d">movie-</text></svg><svg x="1980"><use xlink:href="#a"/><use xlink:href="#b" x="17.996" y="4.317"/><text y="6.012" class="c">❯</text><text x="2.004" y="6.012" class="d">npm</text><text x="6.012" y="6.012" class="d">i</text><text x="8.016" y="6.012" class="d">-g</text><text x="11.022" y="6.012" class="d">movie-t</text></svg><svg x="2070"><use xlink:href="#a"/><use xlink:href="#b" x="18.996" y="4.317"/><text y="6.012" class="c">❯</text><text x="2.004" y="6.012" class="d">npm</text><text x="6.012" y="6.012" class="d">i</text><text x="8.016" y="6.012" class="d">-g</text><text x="11.022" y="6.012" class="d">movie-tr</text></svg><svg x="2160"><use xlink:href="#a"/><use xlink:href="#b" x="19.996" y="4.317"/><text y="6.012" class="c">❯</text><text x="2.004" y="6.012" class="d">npm</text><text x="6.012" y="6.012" class="d">i</text><text x="8.016" y="6.012" class="d">-g</text><text x="11.022" y="6.012" class="d">movie-tra</text></svg><svg x="2250"><use xlink:href="#a"/><use xlink:href="#b" x="20.996" y="4.317"/><text y="6.012" class="c">❯</text><text x="2.004" y="6.012" class="d">npm</text><text x="6.012" y="6.012" class="d">i</text><text x="8.016" y="6.012" class="d">-g</text><text x="11.022" y="6.012" class="d">movie-trai</text></svg><svg x="2340"><use xlink:href="#a"/><use xlink:href="#b" x="21.996" y="4.317"/><text y="6.012" class="c">❯</text><text x="2.004" y="6.012" class="d">npm</text><text x="6.012" y="6.012" class="d">i</text><text x="8.016" y="6.012" class="d">-g</text><text x="11.022" y="6.012" class="d">movie-trail</text></svg><svg x="2430"><use xlink:href="#a"/><use xlink:href="#b" x="22.996" y="4.317"/><text y="6.012" class="c">❯</text><text x="2.004" y="6.012" class="d">npm</text><text x="6.012" y="6.012" class="d">i</text><text x="8.016" y="6.012" class="d">-g</text><text x="11.022" y="6.012" class="d">movie-traile</text></svg><svg x="2520"><use xlink:href="#a"/><use xlink:href="#b" x="23.996" y="4.317"/><use xlink:href="#5" y="4.342"/></svg><svg x="2610"><use xlink:href="#a"/><use xlink:href="#b" x="23.996" y="4.317"/><use xlink:href="#5" y="4.342"/></svg><svg x="2700"><use xlink:href="#a"/><use xlink:href="#b" x="-.004" y="6.488"/><use xlink:href="#5" y="4.342"/></svg><svg x="2790"><use xlink:href="#a"/><use xlink:href="#b" x="-.004" y="6.488"/><use xlink:href="#5" y="4.342"/></svg><svg x="2880"><use xlink:href="#a"/><use xlink:href="#5" y="4.342"/></svg><svg x="2970"><use xlink:href="#a"/><use xlink:href="#5" y="4.342"/><use xlink:href="#6" y="6.513"/></svg><svg x="3060"><use xlink:href="#a"/><use xlink:href="#5" y="4.342"/><use xlink:href="#6" y="6.513"/></svg><svg x="3150"><use xlink:href="#a"/><use xlink:href="#5" y="4.342"/><use xlink:href="#6" y="6.513"/></svg><svg x="3240"><use xlink:href="#a"/><use xlink:href="#5" y="4.342"/><use xlink:href="#6" y="6.513"/></svg><svg x="3330"><use xlink:href="#a"/><use xlink:href="#5" y="4.342"/><use xlink:href="#6" y="6.513"/></svg><svg x="3420"><use xlink:href="#a"/><use xlink:href="#5" y="4.342"/><use xlink:href="#6" y="6.513"/></svg><svg x="3510"><use xlink:href="#a"/><use xlink:href="#5" y="4.342"/><use xlink:href="#6" y="6.513"/></svg><svg x="3600"><use xlink:href="#a"/><use xlink:href="#5" y="4.342"/><use xlink:href="#6" y="6.513"/></svg><svg x="3690"><use xlink:href="#a"/><use xlink:href="#5" y="4.342"/><use xlink:href="#6" y="6.513"/></svg><svg x="3780"><use xlink:href="#a"/><use xlink:href="#5" y="4.342"/><use xlink:href="#6" y="6.513"/></svg><svg x="3870"><use xlink:href="#a"/><use xlink:href="#5" y="4.342"/><use xlink:href="#6" y="6.513"/></svg><svg x="3960"><use xlink:href="#a"/><use xlink:href="#5" y="4.342"/><use xlink:href="#6" y="6.513"/></svg><svg x="4050"><use xlink:href="#a"/><use xlink:href="#5" y="4.342"/><use xlink:href="#7" y="6.513"/></svg><svg x="4140"><use xlink:href="#a"/><use xlink:href="#5" y="4.342"/><use xlink:href="#7" y="6.513"/></svg><svg x="4230"><use xlink:href="#a"/><use xlink:href="#5" y="4.342"/><use xlink:href="#7" y="6.513"/></svg><svg x="4320"><use xlink:href="#a"/><use xlink:href="#5" y="4.342"/><use xlink:href="#7" y="6.513"/></svg><svg x="4410"><use xlink:href="#a"/><use xlink:href="#5" y="4.342"/><use xlink:href="#7" y="6.513"/></svg><svg x="4500"><use xlink:href="#a"/><use xlink:href="#b" x="-.004" y="6.488"/><use xlink:href="#5" y="4.342"/></svg><svg x="4590"><use xlink:href="#a"/><use xlink:href="#b" x="-.004" y="8.659"/><use xlink:href="#5" y="4.342"/><use xlink:href="#8" y="6.513"/></svg><svg x="4680"><use xlink:href="#a"/><use xlink:href="#b" x="-.004" y="13.001"/><use xlink:href="#5" y="4.342"/><use xlink:href="#8" y="6.513"/><use xlink:href="#9" y="8.684"/><use xlink:href="#10" y="10.855"/></svg><svg x="4770"><use xlink:href="#a"/><use xlink:href="#b" x="-.004" y="13.001"/><use xlink:href="#5" y="4.342"/><use xlink:href="#8" y="6.513"/><use xlink:href="#9" y="8.684"/><use xlink:href="#10" y="10.855"/></svg><svg x="4860"><use xlink:href="#a"/><use xlink:href="#b" x="-.004" y="17.343"/><use xlink:href="#5" y="4.342"/><use xlink:href="#8" y="6.513"/><use xlink:href="#9" y="8.684"/><use xlink:href="#10" y="10.855"/></svg><svg x="4950"><use xlink:href="#a"/><use xlink:href="#b" x="-.004" y="17.343"/><use xlink:href="#5" y="4.342"/><use xlink:href="#8" y="6.513"/><use xlink:href="#9" y="8.684"/><use xlink:href="#10" y="10.855"/></svg><svg x="5040"><use xlink:href="#a"/><use xlink:href="#b" x="-.004" y="17.343"/><use xlink:href="#5" y="4.342"/><use xlink:href="#8" y="6.513"/><use xlink:href="#9" y="8.684"/><use xlink:href="#10" y="10.855"/></svg><svg x="5130"><use xlink:href="#a"/><use xlink:href="#b" x="1.996" y="17.343"/><use xlink:href="#5" y="4.342"/><use xlink:href="#8" y="6.513"/><use xlink:href="#9" y="8.684"/><use xlink:href="#10" y="10.855"/><use xlink:href="#1" y="17.368"/></svg><svg x="5220"><use xlink:href="#a"/><use xlink:href="#b" x="1.996" y="17.343"/><use xlink:href="#5" y="4.342"/><use xlink:href="#8" y="6.513"/><use xlink:href="#9" y="8.684"/><use xlink:href="#10" y="10.855"/><use xlink:href="#1" y="17.368"/></svg><svg x="5310"><use xlink:href="#a"/><use xlink:href="#b" x="1.996" y="17.343"/><use xlink:href="#5" y="4.342"/><use xlink:href="#8" y="6.513"/><use xlink:href="#9" y="8.684"/><use xlink:href="#10" y="10.855"/><use xlink:href="#1" y="17.368"/></svg><svg x="5400"><use xlink:href="#a"/><use xlink:href="#b" x="2.996" y="17.343"/><use xlink:href="#5" y="4.342"/><use xlink:href="#8" y="6.513"/><use xlink:href="#9" y="8.684"/><use xlink:href="#10" y="10.855"/><use xlink:href="#11" y="17.368"/></svg><svg x="5490"><use xlink:href="#a"/><use xlink:href="#b" x="3.996" y="17.343"/><use xlink:href="#5" y="4.342"/><use xlink:href="#8" y="6.513"/><use xlink:href="#9" y="8.684"/><use xlink:href="#10" y="10.855"/><use xlink:href="#12" y="17.368"/></svg><svg x="5580"><use xlink:href="#a"/><use xlink:href="#b" x="4.996" y="17.343"/><use xlink:href="#5" y="4.342"/><use xlink:href="#8" y="6.513"/><use xlink:href="#9" y="8.684"/><use xlink:href="#10" y="10.855"/><use xlink:href="#13" y="17.368"/></svg><svg x="5670"><use xlink:href="#a"/><use xlink:href="#b" x="5.996" y="17.343"/><use xlink:href="#5" y="4.342"/><use xlink:href="#8" y="6.513"/><use xlink:href="#9" y="8.684"/><use xlink:href="#10" y="10.855"/><use xlink:href="#14" y="17.368"/></svg><svg x="5760"><use xlink:href="#a"/><use xlink:href="#b" x="6.996" y="17.343"/><use xlink:href="#5" y="4.342"/><use xlink:href="#8" y="6.513"/><use xlink:href="#9" y="8.684"/><use xlink:href="#10" y="10.855"/><use xlink:href="#15" y="17.368"/></svg><svg x="5850"><use xlink:href="#a"/><use xlink:href="#b" x="7.996" y="17.343"/><use xlink:href="#5" y="4.342"/><use xlink:href="#8" y="6.513"/><use xlink:href="#9" y="8.684"/><use xlink:href="#10" y="10.855"/><use xlink:href="#16" y="17.368"/></svg><svg x="5940"><use xlink:href="#a"/><use xlink:href="#b" x="8.996" y="17.343"/><use xlink:href="#5" y="4.342"/><use xlink:href="#8" y="6.513"/><use xlink:href="#9" y="8.684"/><use xlink:href="#10" y="10.855"/><use xlink:href="#17" y="17.368"/></svg><svg x="6030"><use xlink:href="#a"/><use xlink:href="#b" x="9.996" y="17.343"/><use xlink:href="#5" y="4.342"/><use xlink:href="#8" y="6.513"/><use xlink:href="#9" y="8.684"/><use xlink:href="#10" y="10.855"/><use xlink:href="#18" y="17.368"/></svg><svg x="6120"><use xlink:href="#a"/><use xlink:href="#b" x="10.996" y="17.343"/><use xlink:href="#5" y="4.342"/><use xlink:href="#8" y="6.513"/><use xlink:href="#9" y="8.684"/><use xlink:href="#10" y="10.855"/><use xlink:href="#19" y="17.368"/></svg><svg x="6210"><use xlink:href="#a"/><use xlink:href="#b" x="11.996" y="17.343"/><use xlink:href="#5" y="4.342"/><use xlink:href="#8" y="6.513"/><use xlink:href="#9" y="8.684"/><use xlink:href="#10" y="10.855"/><use xlink:href="#20" y="17.368"/></svg><svg x="6300"><use xlink:href="#a"/><use xlink:href="#b" x="12.996" y="17.343"/><use xlink:href="#5" y="4.342"/><use xlink:href="#8" y="6.513"/><use xlink:href="#9" y="8.684"/><use xlink:href="#10" y="10.855"/><use xlink:href="#21" y="17.368"/></svg><svg x="6390"><use xlink:href="#a"/><use xlink:href="#b" x="13.996" y="17.343"/><use xlink:href="#5" y="4.342"/><use xlink:href="#8" y="6.513"/><use xlink:href="#9" y="8.684"/><use xlink:href="#10" y="10.855"/><use xlink:href="#22" y="17.368"/></svg><svg x="6480"><use xlink:href="#a"/><use xlink:href="#b" x="14.996" y="17.343"/><use xlink:href="#5" y="4.342"/><use xlink:href="#8" y="6.513"/><use xlink:href="#9" y="8.684"/><use xlink:href="#10" y="10.855"/><use xlink:href="#23" y="17.368"/></svg><svg x="6570"><use xlink:href="#a"/><use xlink:href="#b" x="14.996" y="17.343"/><use xlink:href="#5" y="4.342"/><use xlink:href="#8" y="6.513"/><use xlink:href="#9" y="8.684"/><use xlink:href="#10" y="10.855"/><use xlink:href="#23" y="17.368"/></svg><svg x="6660"><use xlink:href="#a"/><use xlink:href="#b" x="-.004" y="19.514"/><use xlink:href="#5" y="4.342"/><use xlink:href="#8" y="6.513"/><use xlink:href="#9" y="8.684"/><use xlink:href="#10" y="10.855"/><use xlink:href="#23" y="17.368"/></svg><svg x="6750"><use xlink:href="#a"/><use xlink:href="#b" x="-.004" y="19.514"/><use xlink:href="#5" y="4.342"/><use xlink:href="#8" y="6.513"/><use xlink:href="#9" y="8.684"/><use xlink:href="#10" y="10.855"/><use xlink:href="#23" y="17.368"/></svg><svg x="6840"><use xlink:href="#a"/><use xlink:href="#b" x="-.004" y="21.685"/><use xlink:href="#5" y="4.342"/><use xlink:href="#8" y="6.513"/><use xlink:href="#9" y="8.684"/><use xlink:href="#10" y="10.855"/><use xlink:href="#23" y="17.368"/><use xlink:href="#24" y="19.539"/></svg><svg x="6930"><use xlink:href="#a"/><use xlink:href="#b" x="-.004" y="23.856"/><use xlink:href="#5" y="4.342"/><use xlink:href="#8" y="6.513"/><use xlink:href="#9" y="8.684"/><use xlink:href="#10" y="10.855"/><use xlink:href="#23" y="17.368"/><use xlink:href="#24" y="19.539"/></svg><svg x="7020"><use xlink:href="#a"/><use xlink:href="#b" x="-.004" y="26.027"/><use xlink:href="#5" y="4.342"/><use xlink:href="#8" y="6.513"/><use xlink:href="#9" y="8.684"/><use xlink:href="#10" y="10.855"/><use xlink:href="#23" y="17.368"/><use xlink:href="#24" y="19.539"/><use xlink:href="#25" y="23.881"/></svg><svg x="7110"><use xlink:href="#a"/><use xlink:href="#b" x="-.004" y="26.027"/><use xlink:href="#5" y="2.171"/><use xlink:href="#8" y="4.342"/><use xlink:href="#9" y="6.513"/><use xlink:href="#10" y="8.684"/><use xlink:href="#23" y="15.197"/><use xlink:href="#24" y="17.368"/><use xlink:href="#25" y="21.71"/><use xlink:href="#26" y="23.881"/></svg><svg x="7200"><use xlink:href="#a"/><use xlink:href="#b" x="-.004" y="26.027"/><use xlink:href="#5"/><use xlink:href="#8" y="2.171"/><use xlink:href="#9" y="4.342"/><use xlink:href="#10" y="6.513"/><use xlink:href="#23" y="13.026"/><use xlink:href="#24" y="15.197"/><use xlink:href="#25" y="19.539"/><use xlink:href="#26" y="21.71"/></svg><svg x="7290"><use xlink:href="#a"/><use xlink:href="#b" x="-.004" y="26.027"/><use xlink:href="#8"/><use xlink:href="#9" y="2.171"/><use xlink:href="#10" y="4.342"/><use xlink:href="#23" y="10.855"/><use xlink:href="#24" y="13.026"/><use xlink:href="#25" y="17.368"/><use xlink:href="#26" y="19.539"/><use xlink:href="#27" y="23.881"/></svg><svg x="7380"><use xlink:href="#a"/><use xlink:href="#b" x="-.004" y="26.027"/><use xlink:href="#9"/><use xlink:href="#10" y="2.171"/><use xlink:href="#23" y="8.684"/><use xlink:href="#24" y="10.855"/><use xlink:href="#25" y="15.197"/><use xlink:href="#26" y="17.368"/><use xlink:href="#27" y="21.71"/><use xlink:href="#28" y="23.881"/></svg><svg x="7470"><use xlink:href="#a"/><use xlink:href="#b" x="-.004" y="26.027"/><use xlink:href="#10"/><use xlink:href="#23" y="6.513"/><use xlink:href="#24" y="8.684"/><use xlink:href="#25" y="13.026"/><use xlink:href="#26" y="15.197"/><use xlink:href="#27" y="19.539"/><use xlink:href="#28" y="21.71"/><use xlink:href="#29" y="23.881"/></svg><svg x="7560"><use xlink:href="#a"/><use xlink:href="#b" x="-.004" y="26.027"/><use xlink:href="#10"/><use xlink:href="#23" y="6.513"/><use xlink:href="#24" y="8.684"/><use xlink:href="#25" y="13.026"/><use xlink:href="#26" y="15.197"/><use xlink:href="#27" y="19.539"/><use xlink:href="#28" y="21.71"/><use xlink:href="#29" y="23.881"/></svg><svg x="7650"><use xlink:href="#a"/><use xlink:href="#b" x="-.004" y="26.027"/><use xlink:href="#23" y="2.171"/><use xlink:href="#24" y="4.342"/><use xlink:href="#25" y="8.684"/><use xlink:href="#26" y="10.855"/><use xlink:href="#27" y="15.197"/><use xlink:href="#28" y="17.368"/><use xlink:href="#29" y="19.539"/></svg><svg x="7740"><use xlink:href="#a"/><use xlink:href="#b" x="-.004" y="26.027"/><use xlink:href="#23" y="2.171"/><use xlink:href="#24" y="4.342"/><use xlink:href="#25" y="8.684"/><use xlink:href="#26" y="10.855"/><use xlink:href="#27" y="15.197"/><use xlink:href="#28" y="17.368"/><use xlink:href="#29" y="19.539"/></svg><svg x="7830"><use xlink:href="#a"/><use xlink:href="#b" x="-.004" y="26.027"/><use xlink:href="#23" y="2.171"/><use xlink:href="#24" y="4.342"/><use xlink:href="#25" y="8.684"/><use xlink:href="#26" y="10.855"/><use xlink:href="#27" y="15.197"/><use xlink:href="#28" y="17.368"/><use xlink:href="#29" y="19.539"/></svg><svg x="7920"><use xlink:href="#a"/><use xlink:href="#b" x="1.996" y="26.027"/><use xlink:href="#23" y="2.171"/><use xlink:href="#24" y="4.342"/><use xlink:href="#25" y="8.684"/><use xlink:href="#26" y="10.855"/><use xlink:href="#27" y="15.197"/><use xlink:href="#28" y="17.368"/><use xlink:href="#29" y="19.539"/><use xlink:href="#1" y="26.052"/></svg><svg x="8010"><use xlink:href="#a"/><use xlink:href="#b" x="1.996" y="26.027"/><use xlink:href="#23" y="2.171"/><use xlink:href="#24" y="4.342"/><use xlink:href="#25" y="8.684"/><use xlink:href="#26" y="10.855"/><use xlink:href="#27" y="15.197"/><use xlink:href="#28" y="17.368"/><use xlink:href="#29" y="19.539"/><use xlink:href="#1" y="26.052"/></svg><svg x="8100"><use xlink:href="#a"/><use xlink:href="#b" x="1.996" y="26.027"/><use xlink:href="#23" y="2.171"/><use xlink:href="#24" y="4.342"/><use xlink:href="#25" y="8.684"/><use xlink:href="#26" y="10.855"/><use xlink:href="#27" y="15.197"/><use xlink:href="#28" y="17.368"/><use xlink:href="#29" y="19.539"/><use xlink:href="#1" y="26.052"/></svg><svg x="8190"><use xlink:href="#a"/><use xlink:href="#b" x="2.996" y="26.027"/><use xlink:href="#23" y="2.171"/><use xlink:href="#24" y="4.342"/><use xlink:href="#25" y="8.684"/><use xlink:href="#26" y="10.855"/><use xlink:href="#27" y="15.197"/><use xlink:href="#28" y="17.368"/><use xlink:href="#29" y="19.539"/><use xlink:href="#11" y="26.052"/></svg><svg x="8280"><use xlink:href="#a"/><use xlink:href="#b" x="3.996" y="26.027"/><use xlink:href="#23" y="2.171"/><use xlink:href="#24" y="4.342"/><use xlink:href="#25" y="8.684"/><use xlink:href="#26" y="10.855"/><use xlink:href="#27" y="15.197"/><use xlink:href="#28" y="17.368"/><use xlink:href="#29" y="19.539"/><use xlink:href="#12" y="26.052"/></svg><svg x="8370"><use xlink:href="#a"/><use xlink:href="#b" x="4.996" y="26.027"/><use xlink:href="#23" y="2.171"/><use xlink:href="#24" y="4.342"/><use xlink:href="#25" y="8.684"/><use xlink:href="#26" y="10.855"/><use xlink:href="#27" y="15.197"/><use xlink:href="#28" y="17.368"/><use xlink:href="#29" y="19.539"/><use xlink:href="#13" y="26.052"/></svg><svg x="8460"><use xlink:href="#a"/><use xlink:href="#b" x="5.996" y="26.027"/><use xlink:href="#23" y="2.171"/><use xlink:href="#24" y="4.342"/><use xlink:href="#25" y="8.684"/><use xlink:href="#26" y="10.855"/><use xlink:href="#27" y="15.197"/><use xlink:href="#28" y="17.368"/><use xlink:href="#29" y="19.539"/><use xlink:href="#14" y="26.052"/></svg><svg x="8550"><use xlink:href="#a"/><use xlink:href="#b" x="6.996" y="26.027"/><use xlink:href="#23" y="2.171"/><use xlink:href="#24" y="4.342"/><use xlink:href="#25" y="8.684"/><use xlink:href="#26" y="10.855"/><use xlink:href="#27" y="15.197"/><use xlink:href="#28" y="17.368"/><use xlink:href="#29" y="19.539"/><use xlink:href="#15" y="26.052"/></svg><svg x="8640"><use xlink:href="#a"/><use xlink:href="#b" x="7.996" y="26.027"/><use xlink:href="#23" y="2.171"/><use xlink:href="#24" y="4.342"/><use xlink:href="#25" y="8.684"/><use xlink:href="#26" y="10.855"/><use xlink:href="#27" y="15.197"/><use xlink:href="#28" y="17.368"/><use xlink:href="#29" y="19.539"/><use xlink:href="#16" y="26.052"/></svg><svg x="8730"><use xlink:href="#a"/><use xlink:href="#b" x="8.996" y="26.027"/><use xlink:href="#23" y="2.171"/><use xlink:href="#24" y="4.342"/><use xlink:href="#25" y="8.684"/><use xlink:href="#26" y="10.855"/><use xlink:href="#27" y="15.197"/><use xlink:href="#28" y="17.368"/><use xlink:href="#29" y="19.539"/><use xlink:href="#17" y="26.052"/></svg><svg x="8820"><use xlink:href="#a"/><use xlink:href="#b" x="9.996" y="26.027"/><use xlink:href="#23" y="2.171"/><use xlink:href="#24" y="4.342"/><use xlink:href="#25" y="8.684"/><use xlink:href="#26" y="10.855"/><use xlink:href="#27" y="15.197"/><use xlink:href="#28" y="17.368"/><use xlink:href="#29" y="19.539"/><use xlink:href="#18" y="26.052"/></svg><svg x="8910"><use xlink:href="#a"/><use xlink:href="#b" x="10.996" y="26.027"/><use xlink:href="#23" y="2.171"/><use xlink:href="#24" y="4.342"/><use xlink:href="#25" y="8.684"/><use xlink:href="#26" y="10.855"/><use xlink:href="#27" y="15.197"/><use xlink:href="#28" y="17.368"/><use xlink:href="#29" y="19.539"/><use xlink:href="#19" y="26.052"/></svg><svg x="9000"><use xlink:href="#a"/><use xlink:href="#b" x="11.996" y="26.027"/><use xlink:href="#23" y="2.171"/><use xlink:href="#24" y="4.342"/><use xlink:href="#25" y="8.684"/><use xlink:href="#26" y="10.855"/><use xlink:href="#27" y="15.197"/><use xlink:href="#28" y="17.368"/><use xlink:href="#29" y="19.539"/><use xlink:href="#20" y="26.052"/></svg><svg x="9090"><use xlink:href="#a"/><use xlink:href="#b" x="12.996" y="26.027"/><use xlink:href="#23" y="2.171"/><use xlink:href="#24" y="4.342"/><use xlink:href="#25" y="8.684"/><use xlink:href="#26" y="10.855"/><use xlink:href="#27" y="15.197"/><use xlink:href="#28" y="17.368"/><use xlink:href="#29" y="19.539"/><use xlink:href="#21" y="26.052"/></svg><svg x="9180"><use xlink:href="#a"/><use xlink:href="#b" x="13.996" y="26.027"/><use xlink:href="#23" y="2.171"/><use xlink:href="#24" y="4.342"/><use xlink:href="#25" y="8.684"/><use xlink:href="#26" y="10.855"/><use xlink:href="#27" y="15.197"/><use xlink:href="#28" y="17.368"/><use xlink:href="#29" y="19.539"/><use xlink:href="#22" y="26.052"/></svg><svg x="9270"><use xlink:href="#a"/><use xlink:href="#b" x="14.996" y="26.027"/><use xlink:href="#23" y="2.171"/><use xlink:href="#24" y="4.342"/><use xlink:href="#25" y="8.684"/><use xlink:href="#26" y="10.855"/><use xlink:href="#27" y="15.197"/><use xlink:href="#28" y="17.368"/><use xlink:href="#29" y="19.539"/><use xlink:href="#23" y="26.052"/></svg><svg x="9360"><use xlink:href="#a"/><use xlink:href="#b" x="15.996" y="26.027"/><use xlink:href="#23" y="2.171"/><use xlink:href="#24" y="4.342"/><use xlink:href="#25" y="8.684"/><use xlink:href="#26" y="10.855"/><use xlink:href="#27" y="15.197"/><use xlink:href="#28" y="17.368"/><use xlink:href="#29" y="19.539"/><use xlink:href="#23" y="26.052"/></svg><svg x="9450"><use xlink:href="#a"/><use xlink:href="#b" x="16.996" y="26.027"/><use xlink:href="#23" y="2.171"/><use xlink:href="#24" y="4.342"/><use xlink:href="#25" y="8.684"/><use xlink:href="#26" y="10.855"/><use xlink:href="#27" y="15.197"/><use xlink:href="#28" y="17.368"/><use xlink:href="#29" y="19.539"/><text y="27.722" class="c">❯</text><text x="2.004" y="27.722" class="d">movie-trailer</text><text x="16.032" y="27.722" class="d">c</text></svg><svg x="9540"><use xlink:href="#a"/><use xlink:href="#b" x="17.996" y="26.027"/><use xlink:href="#23" y="2.171"/><use xlink:href="#24" y="4.342"/><use xlink:href="#25" y="8.684"/><use xlink:href="#26" y="10.855"/><use xlink:href="#27" y="15.197"/><use xlink:href="#28" y="17.368"/><use xlink:href="#29" y="19.539"/><text y="27.722" class="c">❯</text><text x="2.004" y="27.722" class="d">movie-trailer</text><text x="16.032" y="27.722" class="d">cr</text></svg><svg x="9630"><use xlink:href="#a"/><use xlink:href="#b" x="18.996" y="26.027"/><use xlink:href="#23" y="2.171"/><use xlink:href="#24" y="4.342"/><use xlink:href="#25" y="8.684"/><use xlink:href="#26" y="10.855"/><use xlink:href="#27" y="15.197"/><use xlink:href="#28" y="17.368"/><use xlink:href="#29" y="19.539"/><text y="27.722" class="c">❯</text><text x="2.004" y="27.722" class="d">movie-trailer</text><text x="16.032" y="27.722" class="d">cra</text></svg><svg x="9720"><use xlink:href="#a"/><use xlink:href="#b" x="19.996" y="26.027"/><use xlink:href="#23" y="2.171"/><use xlink:href="#24" y="4.342"/><use xlink:href="#25" y="8.684"/><use xlink:href="#26" y="10.855"/><use xlink:href="#27" y="15.197"/><use xlink:href="#28" y="17.368"/><use xlink:href="#29" y="19.539"/><text y="27.722" class="c">❯</text><text x="2.004" y="27.722" class="d">movie-trailer</text><text x="16.032" y="27.722" class="d">cras</text></svg><svg x="9810"><use xlink:href="#a"/><use xlink:href="#b" x="20.996" y="26.027"/><use xlink:href="#23" y="2.171"/><use xlink:href="#24" y="4.342"/><use xlink:href="#25" y="8.684"/><use xlink:href="#26" y="10.855"/><use xlink:href="#27" y="15.197"/><use xlink:href="#28" y="17.368"/><use xlink:href="#29" y="19.539"/><use xlink:href="#30" y="26.052"/></svg><svg x="9900"><use xlink:href="#a"/><use xlink:href="#b" x="20.996" y="26.027"/><use xlink:href="#23" y="2.171"/><use xlink:href="#24" y="4.342"/><use xlink:href="#25" y="8.684"/><use xlink:href="#26" y="10.855"/><use xlink:href="#27" y="15.197"/><use xlink:href="#28" y="17.368"/><use xlink:href="#29" y="19.539"/><use xlink:href="#30" y="26.052"/></svg><svg x="9990"><use xlink:href="#a"/><use xlink:href="#b" x="-.004" y="26.027"/><use xlink:href="#23"/><use xlink:href="#24" y="2.171"/><use xlink:href="#25" y="6.513"/><use xlink:href="#26" y="8.684"/><use xlink:href="#27" y="13.026"/><use xlink:href="#28" y="15.197"/><use xlink:href="#29" y="17.368"/><use xlink:href="#30" y="23.881"/></svg><svg x="10080"><use xlink:href="#a"/><use xlink:href="#b" x="-.004" y="26.027"/><use xlink:href="#23"/><use xlink:href="#24" y="2.171"/><use xlink:href="#25" y="6.513"/><use xlink:href="#26" y="8.684"/><use xlink:href="#27" y="13.026"/><use xlink:href="#28" y="15.197"/><use xlink:href="#29" y="17.368"/><use xlink:href="#30" y="23.881"/></svg><svg x="10170"><use xlink:href="#a"/><use xlink:href="#b" x="-.004" y="26.027"/><use xlink:href="#24"/><use xlink:href="#25" y="4.342"/><use xlink:href="#26" y="6.513"/><use xlink:href="#27" y="10.855"/><use xlink:href="#28" y="13.026"/><use xlink:href="#29" y="15.197"/><use xlink:href="#30" y="21.71"/><use xlink:href="#31" y="23.881"/></svg><svg x="10260"><use xlink:href="#a"/><use xlink:href="#b" x="-.004" y="26.027"/><use xlink:href="#24"/><use xlink:href="#25" y="4.342"/><use xlink:href="#26" y="6.513"/><use xlink:href="#27" y="10.855"/><use xlink:href="#28" y="13.026"/><use xlink:href="#29" y="15.197"/><use xlink:href="#30" y="21.71"/><use xlink:href="#31" y="23.881"/></svg><svg x="10350"><use xlink:href="#a"/><use xlink:href="#b" x="-.004" y="26.027"/><use xlink:href="#25"/><use xlink:href="#26" y="2.171"/><use xlink:href="#27" y="6.513"/><use xlink:href="#28" y="8.684"/><use xlink:href="#29" y="10.855"/><use xlink:href="#30" y="17.368"/><use xlink:href="#31" y="19.539"/></svg><svg x="10440"><use xlink:href="#a"/><use xlink:href="#b" x="-.004" y="26.027"/><use xlink:href="#25"/><use xlink:href="#26" y="2.171"/><use xlink:href="#27" y="6.513"/><use xlink:href="#28" y="8.684"/><use xlink:href="#29" y="10.855"/><use xlink:href="#30" y="17.368"/><use xlink:href="#31" y="19.539"/></svg><svg x="10530"><use xlink:href="#a"/><use xlink:href="#b" x="1.996" y="26.027"/><use xlink:href="#25"/><use xlink:href="#26" y="2.171"/><use xlink:href="#27" y="6.513"/><use xlink:href="#28" y="8.684"/><use xlink:href="#29" y="10.855"/><use xlink:href="#30" y="17.368"/><use xlink:href="#31" y="19.539"/><use xlink:href="#1" y="26.052"/></svg><svg x="10620"><use xlink:href="#a"/><use xlink:href="#b" x="1.996" y="26.027"/><use xlink:href="#25"/><use xlink:href="#26" y="2.171"/><use xlink:href="#27" y="6.513"/><use xlink:href="#28" y="8.684"/><use xlink:href="#29" y="10.855"/><use xlink:href="#30" y="17.368"/><use xlink:href="#31" y="19.539"/><use xlink:href="#1" y="26.052"/></svg><svg x="10710"><use xlink:href="#a"/><use xlink:href="#b" x="1.996" y="26.027"/><use xlink:href="#25"/><use xlink:href="#26" y="2.171"/><use xlink:href="#27" y="6.513"/><use xlink:href="#28" y="8.684"/><use xlink:href="#29" y="10.855"/><use xlink:href="#30" y="17.368"/><use xlink:href="#31" y="19.539"/><use xlink:href="#1" y="26.052"/></svg><svg x="10800"><use xlink:href="#a"/><use xlink:href="#b" x="-.004" y="26.027"/><use xlink:href="#26"/><use xlink:href="#27" y="4.342"/><use xlink:href="#28" y="6.513"/><use xlink:href="#29" y="8.684"/><use xlink:href="#30" y="15.197"/><use xlink:href="#31" y="17.368"/><use xlink:href="#1" y="23.881"/></svg></svg></g></g></svg></svg>