<svg xmlns="http://www.w3.org/2000/svg" viewBox="0 0 1280 640" fill="none">
  <title>movie-trailer — Find YouTube trailers for any movie</title>
  <defs>
    <radialGradient id="g" cx="80%" cy="20%" r="80%">
      <stop offset="0%" stop-color="#7c3aed" stop-opacity="0.20"/>
      <stop offset="60%" stop-color="#0a0510" stop-opacity="0"/>
    </radialGradient>
    <pattern id="grid" width="40" height="40" patternUnits="userSpaceOnUse">
      <path d="M 40 0 L 0 0 0 40" fill="none" stroke="#ffffff" stroke-opacity="0.04" stroke-width="1"/>
    </pattern>
  </defs>
  <rect width="1280" height="640" fill="#0a0510"/>
  <rect width="1280" height="640" fill="url(#grid)"/>
  <rect width="1280" height="640" fill="url(#g)"/>

  <!-- Large decorative mark on right (low opacity) -->
  <g transform="translate(820, 120) scale(1.7)" opacity="0.10">
    <rect x="0" y="0" width="256" height="256" rx="56" fill="#7c3aed"/>
    
			<g fill="#ffffff">
				<path d="M68 80 L68 176 L132 128 Z"/>
				<path d="M138 80 L138 176 L202 128 Z"/>
			</g>
  </g>

  <!-- Small primary mark, top-left -->
  <g transform="translate(96, 96) scale(0.47)">
    <rect x="0" y="0" width="256" height="256" rx="56" fill="#7c3aed"/>
    
			<g fill="#ffffff">
				<path d="M68 80 L68 176 L132 128 Z"/>
				<path d="M138 80 L138 176 L202 128 Z"/>
			</g>
  </g>

  <!-- Wordmark, tagline, footnote (all outlined paths — no font dependency) -->
  <path fill="#fafafa" d="M136.25 380L108.98 380L108.98 292.66L134.06 292.66L135.31 310Q138.91 300.16 145.74 295.82Q152.58 291.48 160.47 291.48L160.47 291.48Q168.75 291.48 174.26 296.25Q179.77 301.02 182.97 311.72L182.97 311.72Q186.95 300.94 194.73 296.21Q202.50 291.48 211.33 291.48L211.33 291.48Q223.59 291.48 231.45 299.38Q239.30 307.27 239.30 321.09L239.30 321.09L239.30 380L212.03 380L212.03 327.27Q212.03 320.63 208.59 317.19Q205.16 313.75 199.77 313.75L199.77 313.75Q193.98 313.75 190.63 317.54Q187.27 321.33 187.27 327.58L187.27 327.58L187.27 380L161.09 380L161.09 326.88Q161.09 320.86 157.70 317.30Q154.30 313.75 148.91 313.75L148.91 313.75Q143.36 313.75 139.80 317.50Q136.25 321.25 136.25 328.13L136.25 328.13L136.25 380ZM289.89 381.64L289.89 381.64Q276.22 381.64 266.38 375.98Q256.53 370.31 251.26 360.20Q245.98 350.08 245.98 336.64L245.98 336.64Q245.98 323.20 251.26 313.05Q256.53 302.89 266.38 297.23Q276.22 291.56 289.89 291.56L289.89 291.56Q303.56 291.56 313.37 297.23Q323.17 302.89 328.45 313.05Q333.72 323.20 333.72 336.64L333.72 336.64Q333.72 350.08 328.45 360.20Q323.17 370.31 313.37 375.98Q303.56 381.64 289.89 381.64ZM289.89 360.78L289.89 360.78Q297.70 360.78 301.84 354.10Q305.98 347.42 305.98 336.48L305.98 336.48Q305.98 325.55 301.84 318.98Q297.70 312.42 289.89 312.42L289.89 312.42Q282.08 312.42 277.94 318.98Q273.80 325.55 273.80 336.48L273.80 336.48Q273.80 347.42 277.94 354.10Q282.08 360.78 289.89 360.78ZM396.34 380L364.78 380L333.14 292.66L361.89 292.66L374.94 335.39Q376.73 341.25 378.18 347.27Q379.63 353.28 381.03 359.61L381.03 359.61Q382.28 353.28 383.69 347.30Q385.09 341.33 386.89 335.39L386.89 335.39L399.70 292.66L428.14 292.66L396.34 380ZM458.11 380L430.84 380L430.84 292.66L458.11 292.66L458.11 380ZM444.44 282.42L444.44 282.42Q438.66 282.42 434.52 278.59Q430.38 274.77 430.38 269.30L430.38 269.30Q430.38 263.83 434.52 260Q438.66 256.17 444.44 256.17L444.44 256.17Q450.30 256.17 454.44 260Q458.58 263.83 458.58 269.30L458.58 269.30Q458.58 274.77 454.44 278.59Q450.30 282.42 444.44 282.42ZM508.86 381.64L508.86 381.64Q488.31 381.64 476.55 369.65Q464.80 357.66 464.80 336.64L464.80 336.64Q464.80 323.20 470.07 313.05Q475.34 302.89 485.03 297.23Q494.72 291.56 507.84 291.56L507.84 291.56Q520.11 291.56 529.60 296.68Q539.09 301.80 544.52 311.76Q549.95 321.72 549.95 336.09L549.95 336.09L549.95 342.97L491.59 342.97Q491.98 352.42 496.79 357.15Q501.59 361.88 509.33 361.88L509.33 361.88Q514.80 361.88 518.78 359.57Q522.77 357.27 524.41 352.89L524.41 352.89L548.70 356.88Q545.42 368.20 535.07 374.92Q524.72 381.64 508.86 381.64ZM491.75 327.11L491.75 327.11L524.09 327.11Q523.31 319.69 519.25 315.51Q515.19 311.33 508.08 311.33L508.08 311.33Q500.89 311.33 496.71 315.59Q492.53 319.84 491.75 327.11ZM558.13 322.34L611.80 322.34L611.80 343.36L558.13 343.36L558.13 322.34ZM655.05 292.66L670.75 292.66L670.75 312.89L655.05 312.89L655.05 353.28Q655.05 360.08 662 360.08L662 360.08Q663.41 360.08 665.95 359.73Q668.48 359.38 669.58 359.14L669.58 359.14L673.09 378.98Q668.48 380.31 664.19 380.78Q659.89 381.25 656.06 381.25L656.06 381.25Q642.16 381.25 634.97 374.73Q627.78 368.20 627.78 355.70L627.78 355.70L627.78 312.89L616.22 312.89L616.22 292.66L627.78 292.66L627.78 271.88L655.05 271.88L655.05 292.66ZM704 380L676.73 380L676.73 292.66L703.22 292.66L703.22 308.59L704.16 308.59Q706.50 300 711.93 295.78Q717.36 291.56 724.55 291.56L724.55 291.56Q728.53 291.56 732.28 292.50L732.28 292.50L732.28 316.25Q730.33 315.55 727.16 315.20Q724 314.84 721.50 314.84L721.50 314.84Q713.92 314.84 708.96 319.69Q704 324.53 704 332.34L704 332.34L704 380ZM760.38 381.56L760.38 381.56Q747.80 381.56 739.71 375.16Q731.63 368.75 731.63 355.78L731.63 355.78Q731.63 346.09 736.08 340.39Q740.53 334.69 747.91 331.95Q755.30 329.22 764.13 328.44L764.13 328.44Q775.22 327.50 780.02 326.13Q784.83 324.77 784.83 320.70L784.83 320.70L784.83 320.39Q784.83 315.86 781.66 313.40Q778.50 310.94 772.95 310.94L772.95 310.94Q767.25 310.94 763.58 313.36Q759.91 315.78 758.81 319.92L758.81 319.92L734.13 316.72Q736.70 305.55 746.74 298.55Q756.78 291.56 773.19 291.56L773.19 291.56Q784.05 291.56 792.84 294.92Q801.63 298.28 806.82 304.80Q812.02 311.33 812.02 320.70L812.02 320.70L812.02 380L786.39 380L786.39 367.73L785.69 367.73Q778.42 381.56 760.38 381.56ZM768.66 363.52L768.66 363.52Q775.53 363.52 780.30 359.45Q785.06 355.39 785.06 348.91L785.06 348.91L785.06 340.55Q782.72 341.80 778.27 342.66Q773.81 343.52 769.98 344.14L769.98 344.14Q757.41 346.02 757.41 354.53L757.41 354.53Q757.41 358.91 760.57 361.21Q763.73 363.52 768.66 363.52ZM849.33 380L822.06 380L822.06 292.66L849.33 292.66L849.33 380ZM835.66 282.42L835.66 282.42Q829.88 282.42 825.73 278.59Q821.59 274.77 821.59 269.30L821.59 269.30Q821.59 263.83 825.73 260Q829.88 256.17 835.66 256.17L835.66 256.17Q841.52 256.17 845.66 260Q849.80 263.83 849.80 269.30L849.80 269.30Q849.80 274.77 845.66 278.59Q841.52 282.42 835.66 282.42ZM859.38 263.59L886.64 263.59L886.64 380L859.38 380L859.38 263.59ZM937.39 381.64L937.39 381.64Q916.84 381.64 905.09 369.65Q893.33 357.66 893.33 336.64L893.33 336.64Q893.33 323.20 898.60 313.05Q903.88 302.89 913.56 297.23Q923.25 291.56 936.38 291.56L936.38 291.56Q948.64 291.56 958.13 296.68Q967.63 301.80 973.05 311.76Q978.48 321.72 978.48 336.09L978.48 336.09L978.48 342.97L920.13 342.97Q920.52 352.42 925.32 357.15Q930.13 361.88 937.86 361.88L937.86 361.88Q943.33 361.88 947.31 359.57Q951.30 357.27 952.94 352.89L952.94 352.89L977.23 356.88Q973.95 368.20 963.60 374.92Q953.25 381.64 937.39 381.64ZM920.28 327.11L920.28 327.11L952.63 327.11Q951.84 319.69 947.78 315.51Q943.72 311.33 936.61 311.33L936.61 311.33Q929.42 311.33 925.24 315.59Q921.06 319.84 920.28 327.11ZM1012.05 380L984.78 380L984.78 292.66L1011.27 292.66L1011.27 308.59L1012.20 308.59Q1014.55 300 1019.98 295.78Q1025.41 291.56 1032.59 291.56L1032.59 291.56Q1036.58 291.56 1040.33 292.50L1040.33 292.50L1040.33 316.25Q1038.38 315.55 1035.21 315.20Q1032.05 314.84 1029.55 314.84L1029.55 314.84Q1021.97 314.84 1017.01 319.69Q1012.05 324.53 1012.05 332.34L1012.05 332.34L1012.05 380Z"/>
  <path fill="#a78bfa" d="M107.33 440L101.81 440L101.81 416.72L117.64 416.72L117.64 421.22L107.33 421.22L107.33 427.13L116.63 427.13L116.63 431.53L107.33 431.53L107.33 440ZM125.66 440L120.21 440L120.21 422.53L125.66 422.53L125.66 440ZM122.93 420.48L122.93 420.48Q121.77 420.48 120.95 419.72Q120.12 418.95 120.12 417.86L120.12 417.86Q120.12 416.77 120.95 416Q121.77 415.23 122.93 415.23L122.93 415.23Q124.10 415.23 124.93 416Q125.76 416.77 125.76 417.86L125.76 417.86Q125.76 418.95 124.93 419.72Q124.10 420.48 122.93 420.48ZM134.41 430.03L134.41 430.03L134.41 440L128.95 440L128.95 422.53L134.08 422.53L134.17 426.30Q134.86 424.48 136.19 423.40Q137.52 422.31 139.64 422.31L139.64 422.31Q142.38 422.31 144.03 424.11Q145.69 425.91 145.69 428.88L145.69 428.88L145.69 440L140.24 440L140.24 429.94Q140.24 428.47 139.49 427.63Q138.74 426.80 137.39 426.80L137.39 426.80Q136.06 426.80 135.24 427.65Q134.41 428.50 134.41 430.03ZM155.29 440.25L155.29 440.25Q153.35 440.25 151.76 439.24Q150.17 438.23 149.23 436.24Q148.29 434.25 148.29 431.28L148.29 431.28Q148.29 428.22 149.27 426.23Q150.24 424.25 151.83 423.28Q153.42 422.31 155.24 422.31L155.24 422.31Q156.63 422.31 157.62 422.79Q158.60 423.27 159.24 424.01Q159.87 424.75 160.20 425.53L160.20 425.53L160.32 425.53L160.32 416.72L165.76 416.72L165.76 440L160.38 440L160.38 437.17L160.20 437.17Q159.68 438.36 158.49 439.30Q157.29 440.25 155.29 440.25ZM157.15 436L157.15 436Q158.70 436 159.57 434.71Q160.45 433.42 160.45 431.28L160.45 431.28Q160.45 429.11 159.58 427.84Q158.71 426.58 157.15 426.58L157.15 426.58Q155.57 426.58 154.74 427.87Q153.90 429.16 153.90 431.28L153.90 431.28Q153.90 433.41 154.74 434.70Q155.57 436 157.15 436ZM188.81 440L183.32 440L183.32 431.56L174.67 416.72L181.13 416.72L184.79 423.86Q185.53 425.28 186.09 426.86L186.09 426.86Q186.63 425.28 187.34 423.86L187.34 423.86L190.82 416.72L197.26 416.72L188.81 431.56L188.81 440ZM207.58 440.33L207.58 440.33Q204.85 440.33 202.88 439.20Q200.91 438.06 199.85 436.04Q198.80 434.02 198.80 431.33L198.80 431.33Q198.80 428.64 199.85 426.61Q200.91 424.58 202.88 423.45Q204.85 422.31 207.58 422.31L207.58 422.31Q210.31 422.31 212.28 423.45Q214.24 424.58 215.29 426.61Q216.35 428.64 216.35 431.33L216.35 431.33Q216.35 434.02 215.29 436.04Q214.24 438.06 212.28 439.20Q210.31 440.33 207.58 440.33ZM207.58 436.16L207.58 436.16Q209.14 436.16 209.97 434.82Q210.80 433.48 210.80 431.30L210.80 431.30Q210.80 429.11 209.97 427.80Q209.14 426.48 207.58 426.48L207.58 426.48Q206.02 426.48 205.19 427.80Q204.36 429.11 204.36 431.30L204.36 431.30Q204.36 433.48 205.19 434.82Q206.02 436.16 207.58 436.16ZM225.03 440.22L225.03 440.22Q222.28 440.22 220.62 438.42Q218.96 436.63 218.96 433.66L218.96 433.66L218.96 422.53L224.42 422.53L224.42 432.59Q224.42 434.06 225.17 434.90Q225.93 435.73 227.26 435.73L227.26 435.73Q228.60 435.73 229.42 434.88Q230.24 434.03 230.24 432.50L230.24 432.50L230.24 422.53L235.70 422.53L235.70 440L230.57 440L230.49 436.22Q229.79 438.05 228.46 439.13Q227.14 440.22 225.03 440.22ZM245.25 421.22L238.21 421.22L238.21 416.72L257.80 416.72L257.80 421.22L250.75 421.22L250.75 440L245.25 440L245.25 421.22ZM266.37 440.22L266.37 440.22Q263.62 440.22 261.96 438.42Q260.31 436.63 260.31 433.66L260.31 433.66L260.31 422.53L265.76 422.53L265.76 432.59Q265.76 434.06 266.52 434.90Q267.28 435.73 268.60 435.73L268.60 435.73Q269.95 435.73 270.77 434.88Q271.59 434.03 271.59 432.50L271.59 432.50L271.59 422.53L277.04 422.53L277.04 440L271.92 440L271.84 436.22Q271.14 438.05 269.81 439.13Q268.48 440.22 266.37 440.22ZM290.80 440.25L290.80 440.25Q288.80 440.25 287.60 439.30Q286.41 438.36 285.89 437.17L285.89 437.17L285.71 437.17L285.71 440L280.32 440L280.32 416.72L285.77 416.72L285.77 425.53L285.89 425.53Q286.22 424.75 286.85 424.01Q287.47 423.27 288.46 422.79Q289.44 422.31 290.83 422.31L290.83 422.31Q292.68 422.31 294.26 423.28Q295.85 424.25 296.82 426.23Q297.80 428.22 297.80 431.28L297.80 431.28Q297.80 434.25 296.85 436.24Q295.91 438.23 294.32 439.24Q292.74 440.25 290.80 440.25ZM288.94 436L288.94 436Q290.52 436 291.35 434.70Q292.19 433.41 292.19 431.28L292.19 431.28Q292.19 429.16 291.35 427.87Q290.52 426.58 288.94 426.58L288.94 426.58Q287.38 426.58 286.51 427.84Q285.64 429.11 285.64 431.28L285.64 431.28Q285.64 433.42 286.51 434.71Q287.38 436 288.94 436ZM308.54 440.33L308.54 440.33Q304.43 440.33 302.08 437.93Q299.73 435.53 299.73 431.33L299.73 431.33Q299.73 428.64 300.78 426.61Q301.84 424.58 303.78 423.45Q305.71 422.31 308.34 422.31L308.34 422.31Q310.79 422.31 312.69 423.34Q314.59 424.36 315.68 426.35Q316.76 428.34 316.76 431.22L316.76 431.22L316.76 432.59L305.09 432.59Q305.17 434.48 306.13 435.43Q307.09 436.38 308.64 436.38L308.64 436.38Q309.73 436.38 310.53 435.91Q311.32 435.45 311.65 434.58L311.65 434.58L316.51 435.38Q315.86 437.64 313.78 438.98Q311.71 440.33 308.54 440.33ZM305.12 429.42L305.12 429.42L311.59 429.42Q311.43 427.94 310.62 427.10Q309.81 426.27 308.39 426.27L308.39 426.27Q306.95 426.27 306.11 427.12Q305.28 427.97 305.12 429.42ZM332.26 422.53L335.40 422.53L335.40 426.58L332.26 426.58L332.26 434.66Q332.26 436.02 333.65 436.02L333.65 436.02Q333.93 436.02 334.44 435.95Q334.95 435.88 335.17 435.83L335.17 435.83L335.87 439.80Q334.95 440.06 334.09 440.16Q333.23 440.25 332.47 440.25L332.47 440.25Q329.68 440.25 328.25 438.95Q326.81 437.64 326.81 435.14L326.81 435.14L326.81 426.58L324.50 426.58L324.50 422.53L326.81 422.53L326.81 418.38L332.26 418.38L332.26 422.53ZM343.33 440L337.88 440L337.88 422.53L343.18 422.53L343.18 425.72L343.36 425.72Q343.83 424 344.92 423.16Q346.00 422.31 347.44 422.31L347.44 422.31Q348.24 422.31 348.99 422.50L348.99 422.50L348.99 427.25Q348.60 427.11 347.97 427.04Q347.33 426.97 346.83 426.97L346.83 426.97Q345.32 426.97 344.32 427.94Q343.33 428.91 343.33 430.47L343.33 430.47L343.33 440ZM355.89 440.31L355.89 440.31Q353.37 440.31 351.75 439.03Q350.14 437.75 350.14 435.16L350.14 435.16Q350.14 433.22 351.03 432.08Q351.92 430.94 353.40 430.39Q354.87 429.84 356.64 429.69L356.64 429.69Q358.86 429.50 359.82 429.23Q360.78 428.95 360.78 428.14L360.78 428.14L360.78 428.08Q360.78 427.17 360.15 426.68Q359.51 426.19 358.40 426.19L358.40 426.19Q357.26 426.19 356.53 426.67Q355.79 427.16 355.58 427.98L355.58 427.98L350.64 427.34Q351.15 425.11 353.16 423.71Q355.17 422.31 358.45 422.31L358.45 422.31Q360.62 422.31 362.38 422.98Q364.14 423.66 365.18 424.96Q366.22 426.27 366.22 428.14L366.22 428.14L366.22 440L361.09 440L361.09 437.55L360.95 437.55Q359.50 440.31 355.89 440.31ZM357.54 436.70L357.54 436.70Q358.92 436.70 359.87 435.89Q360.83 435.08 360.83 433.78L360.83 433.78L360.83 432.11Q360.36 432.36 359.47 432.53Q358.58 432.70 357.81 432.83L357.81 432.83Q355.29 433.20 355.29 434.91L355.29 434.91Q355.29 435.78 355.93 436.24Q356.56 436.70 357.54 436.70ZM374.96 440L369.51 440L369.51 422.53L374.96 422.53L374.96 440ZM372.22 420.48L372.22 420.48Q371.07 420.48 370.24 419.72Q369.41 418.95 369.41 417.86L369.41 417.86Q369.41 416.77 370.24 416Q371.07 415.23 372.22 415.23L372.22 415.23Q373.40 415.23 374.22 416Q375.05 416.77 375.05 417.86L375.05 417.86Q375.05 418.95 374.22 419.72Q373.40 420.48 372.22 420.48ZM378.25 416.72L383.70 416.72L383.70 440L378.25 440L378.25 416.72ZM395.13 440.33L395.13 440.33Q391.02 440.33 388.67 437.93Q386.32 435.53 386.32 431.33L386.32 431.33Q386.32 428.64 387.37 426.61Q388.43 424.58 390.37 423.45Q392.30 422.31 394.93 422.31L394.93 422.31Q397.38 422.31 399.28 423.34Q401.18 424.36 402.26 426.35Q403.35 428.34 403.35 431.22L403.35 431.22L403.35 432.59L391.68 432.59Q391.76 434.48 392.72 435.43Q393.68 436.38 395.22 436.38L395.22 436.38Q396.32 436.38 397.12 435.91Q397.91 435.45 398.24 434.58L398.24 434.58L403.10 435.38Q402.44 437.64 400.37 438.98Q398.30 440.33 395.13 440.33ZM391.71 429.42L391.71 429.42L398.18 429.42Q398.02 427.94 397.21 427.10Q396.40 426.27 394.97 426.27L394.97 426.27Q393.54 426.27 392.70 427.12Q391.87 427.97 391.71 429.42ZM411.34 440L405.89 440L405.89 422.53L411.19 422.53L411.19 425.72L411.37 425.72Q411.84 424 412.93 423.16Q414.01 422.31 415.45 422.31L415.45 422.31Q416.25 422.31 417.00 422.50L417.00 422.50L417.00 427.25Q416.61 427.11 415.97 427.04Q415.34 426.97 414.84 426.97L414.84 426.97Q413.33 426.97 412.33 427.94Q411.34 428.91 411.34 430.47L411.34 430.47L411.34 440ZM426.37 440.33L426.37 440.33Q423.01 440.33 420.84 438.91Q418.68 437.50 418.23 435L418.23 435L423.29 434.20Q423.62 435.34 424.40 435.92Q425.18 436.50 426.57 436.50L426.57 436.50Q427.71 436.50 428.37 436.10Q429.02 435.70 429.02 435.05L429.02 435.05Q429.02 433.91 426.88 433.48L426.88 433.48L423.83 432.89Q418.66 431.91 418.66 427.86L418.66 427.86Q418.66 425.25 420.75 423.78Q422.83 422.31 426.35 422.31L426.35 422.31Q429.63 422.31 431.62 423.61Q433.60 424.91 434.05 427.16L434.05 427.16L429.24 427.92Q428.71 426.06 426.44 426.06L426.44 426.06Q425.46 426.06 424.78 426.46Q424.10 426.86 424.10 427.53L424.10 427.53Q424.10 428.06 424.52 428.46Q424.94 428.86 426.07 429.08L426.07 429.08L429.41 429.70Q434.55 430.67 434.55 434.42L434.55 434.42Q434.55 436.22 433.50 437.55Q432.44 438.88 430.60 439.60Q428.76 440.33 426.37 440.33ZM450.59 422.53L454.09 422.53L454.09 426.58L450.59 426.58L450.59 440L445.16 440L445.16 426.58L442.23 426.58L442.23 422.53L445.16 422.53L445.16 421.59Q445.16 418.59 446.82 417.11Q448.48 415.63 451.10 415.63L451.10 415.63Q452.26 415.63 453.27 415.80Q454.29 415.98 454.77 416.13L454.77 416.13L453.90 420.11Q453.59 420.03 453.16 419.96Q452.74 419.89 452.32 419.89L452.32 419.89Q451.35 419.89 450.97 420.34Q450.59 420.78 450.59 421.55L450.59 421.55L450.59 422.53ZM464.61 440.33L464.61 440.33Q461.87 440.33 459.91 439.20Q457.94 438.06 456.88 436.04Q455.83 434.02 455.83 431.33L455.83 431.33Q455.83 428.64 456.88 426.61Q457.94 424.58 459.91 423.45Q461.87 422.31 464.61 422.31L464.61 422.31Q467.34 422.31 469.30 423.45Q471.27 424.58 472.32 426.61Q473.37 428.64 473.37 431.33L473.37 431.33Q473.37 434.02 472.32 436.04Q471.27 438.06 469.30 439.20Q467.34 440.33 464.61 440.33ZM464.61 436.16L464.61 436.16Q466.17 436.16 467.00 434.82Q467.83 433.48 467.83 431.30L467.83 431.30Q467.83 429.11 467.00 427.80Q466.17 426.48 464.61 426.48L464.61 426.48Q463.05 426.48 462.22 427.80Q461.39 429.11 461.39 431.30L461.39 431.30Q461.39 433.48 462.22 434.82Q463.05 436.16 464.61 436.16ZM481.45 440L475.99 440L475.99 422.53L481.29 422.53L481.29 425.72L481.48 425.72Q481.95 424 483.03 423.16Q484.12 422.31 485.55 422.31L485.55 422.31Q486.35 422.31 487.10 422.50L487.10 422.50L487.10 427.25Q486.71 427.11 486.08 427.04Q485.45 426.97 484.95 426.97L484.95 426.97Q483.43 426.97 482.44 427.94Q481.45 428.91 481.45 430.47L481.45 430.47L481.45 440ZM500.68 440.31L500.68 440.31Q498.16 440.31 496.55 439.03Q494.93 437.75 494.93 435.16L494.93 435.16Q494.93 433.22 495.82 432.08Q496.71 430.94 498.19 430.39Q499.66 429.84 501.43 429.69L501.43 429.69Q503.65 429.50 504.61 429.23Q505.57 428.95 505.57 428.14L505.57 428.14L505.57 428.08Q505.57 427.17 504.94 426.68Q504.31 426.19 503.20 426.19L503.20 426.19Q502.06 426.19 501.32 426.67Q500.59 427.16 500.37 427.98L500.37 427.98L495.43 427.34Q495.95 425.11 497.95 423.71Q499.96 422.31 503.24 422.31L503.24 422.31Q505.41 422.31 507.17 422.98Q508.93 423.66 509.97 424.96Q511.01 426.27 511.01 428.14L511.01 428.14L511.01 440L505.88 440L505.88 437.55L505.74 437.55Q504.29 440.31 500.68 440.31ZM502.34 436.70L502.34 436.70Q503.71 436.70 504.66 435.89Q505.62 435.08 505.62 433.78L505.62 433.78L505.62 432.11Q505.15 432.36 504.26 432.53Q503.37 432.70 502.60 432.83L502.60 432.83Q500.09 433.20 500.09 434.91L500.09 434.91Q500.09 435.78 500.72 436.24Q501.35 436.70 502.34 436.70ZM519.75 430.03L519.75 430.03L519.75 440L514.30 440L514.30 422.53L519.42 422.53L519.52 426.30Q520.20 424.48 521.53 423.40Q522.86 422.31 524.99 422.31L524.99 422.31Q527.72 422.31 529.38 424.11Q531.03 425.91 531.03 428.88L531.03 428.88L531.03 440L525.58 440L525.58 429.94Q525.58 428.47 524.83 427.63Q524.08 426.80 522.74 426.80L522.74 426.80Q521.41 426.80 520.58 427.65Q519.75 428.50 519.75 430.03ZM534.26 446.13L534.26 446.13L535.48 442.14L536.17 442.33Q537.63 442.72 538.54 442.28Q539.45 441.84 539.38 440.77L539.38 440.77L539.37 440.03L532.85 422.53L538.60 422.53L541.21 431.08Q541.56 432.20 541.79 433.33Q542.02 434.45 542.24 435.63L542.24 435.63Q542.51 434.44 542.81 433.31Q543.10 432.19 543.46 431.08L543.46 431.08L546.26 422.53L551.95 422.53L544.62 441.84Q543.82 443.97 542.24 445.31Q540.67 446.66 537.73 446.66L537.73 446.66Q535.62 446.66 534.26 446.13ZM565.90 440L560.45 440L560.45 422.53L565.46 422.53L565.71 426Q566.43 424.03 567.80 423.16Q569.17 422.30 570.74 422.30L570.74 422.30Q572.40 422.30 573.50 423.25Q574.60 424.20 575.24 426.34L575.24 426.34Q576.04 424.19 577.60 423.24Q579.15 422.30 580.92 422.30L580.92 422.30Q583.37 422.30 584.94 423.88Q586.51 425.45 586.51 428.22L586.51 428.22L586.51 440L581.06 440L581.06 429.45Q581.06 428.13 580.37 427.44Q579.68 426.75 578.60 426.75L578.60 426.75Q577.45 426.75 576.77 427.51Q576.10 428.27 576.10 429.52L576.10 429.52L576.10 440L570.87 440L570.87 429.38Q570.87 428.17 570.19 427.46Q569.51 426.75 568.43 426.75L568.43 426.75Q567.32 426.75 566.61 427.50Q565.90 428.25 565.90 429.63L565.90 429.63L565.90 440ZM597.91 440.33L597.91 440.33Q595.17 440.33 593.20 439.20Q591.24 438.06 590.18 436.04Q589.13 434.02 589.13 431.33L589.13 431.33Q589.13 428.64 590.18 426.61Q591.24 424.58 593.20 423.45Q595.17 422.31 597.91 422.31L597.91 422.31Q600.64 422.31 602.60 423.45Q604.56 424.58 605.62 426.61Q606.67 428.64 606.67 431.33L606.67 431.33Q606.67 434.02 605.62 436.04Q604.56 438.06 602.60 439.20Q600.64 440.33 597.91 440.33ZM597.91 436.16L597.91 436.16Q599.47 436.16 600.30 434.82Q601.13 433.48 601.13 431.30L601.13 431.30Q601.13 429.11 600.30 427.80Q599.47 426.48 597.91 426.48L597.91 426.48Q596.35 426.48 595.52 427.80Q594.69 429.11 594.69 431.30L594.69 431.30Q594.69 433.48 595.52 434.82Q596.35 436.16 597.91 436.16ZM620.48 440L614.17 440L607.84 422.53L613.59 422.53L616.20 431.08Q616.56 432.25 616.85 433.45Q617.13 434.66 617.42 435.92L617.42 435.92Q617.67 434.66 617.95 433.46Q618.23 432.27 618.59 431.08L618.59 431.08L621.15 422.53L626.84 422.53L620.48 440ZM634.11 440L628.66 440L628.66 422.53L634.11 422.53L634.11 440ZM631.38 420.48L631.38 420.48Q630.22 420.48 629.39 419.72Q628.56 418.95 628.56 417.86L628.56 417.86Q628.56 416.77 629.39 416Q630.22 415.23 631.38 415.23L631.38 415.23Q632.55 415.23 633.38 416Q634.21 416.77 634.21 417.86L634.21 417.86Q634.21 418.95 633.38 419.72Q632.55 420.48 631.38 420.48ZM645.54 440.33L645.54 440.33Q641.43 440.33 639.08 437.93Q636.73 435.53 636.73 431.33L636.73 431.33Q636.73 428.64 637.78 426.61Q638.84 424.58 640.78 423.45Q642.71 422.31 645.34 422.31L645.34 422.31Q647.79 422.31 649.69 423.34Q651.59 424.36 652.67 426.35Q653.76 428.34 653.76 431.22L653.76 431.22L653.76 432.59L642.09 432.59Q642.17 434.48 643.13 435.43Q644.09 436.38 645.64 436.38L645.64 436.38Q646.73 436.38 647.53 435.91Q648.32 435.45 648.65 434.58L648.65 434.58L653.51 435.38Q652.85 437.64 650.78 438.98Q648.71 440.33 645.54 440.33ZM642.12 429.42L642.12 429.42L648.59 429.42Q648.43 427.94 647.62 427.10Q646.81 426.27 645.39 426.27L645.39 426.27Q643.95 426.27 643.11 427.12Q642.28 427.97 642.12 429.42Z"/>
  <path fill="#6b6275" d="M928.19 577.45L931.60 577.45L931.60 592L928.19 592L928.19 577.45ZM936.91 592.20L936.91 592.20Q935.34 592.20 934.33 591.39Q933.32 590.59 933.32 588.97L933.32 588.97Q933.32 587.76 933.87 587.05Q934.43 586.34 935.35 585.99Q936.28 585.65 937.38 585.55L937.38 585.55Q938.77 585.44 939.37 585.27Q939.97 585.10 939.97 584.59L939.97 584.59L939.97 584.55Q939.97 583.98 939.57 583.67Q939.18 583.37 938.48 583.37L938.48 583.37Q937.77 583.37 937.31 583.67Q936.85 583.97 936.71 584.49L936.71 584.49L933.63 584.09Q933.95 582.69 935.21 581.82Q936.46 580.95 938.51 580.95L938.51 580.95Q939.87 580.95 940.97 581.37Q942.07 581.79 942.72 582.60Q943.37 583.42 943.37 584.59L943.37 584.59L943.37 592L940.16 592L940.16 590.47L940.07 590.47Q939.17 592.20 936.91 592.20ZM937.95 589.94L937.95 589.94Q938.80 589.94 939.40 589.43Q940.00 588.92 940.00 588.11L940.00 588.11L940.00 587.07Q939.70 587.22 939.15 587.33Q938.59 587.44 938.11 587.52L938.11 587.52Q936.54 587.75 936.54 588.82L936.54 588.82Q936.54 589.36 936.93 589.65Q937.33 589.94 937.95 589.94ZM950.69 592.21L950.69 592.21Q948.98 592.21 947.75 591.50Q946.52 590.79 945.86 589.52Q945.20 588.26 945.20 586.58L945.20 586.58Q945.20 584.90 945.86 583.63Q946.52 582.36 947.75 581.65Q948.98 580.95 950.69 580.95L950.69 580.95Q952.78 580.95 954.12 581.99Q955.46 583.04 955.72 584.82L955.72 584.82L952.57 585.35Q952.41 584.49 951.94 584.02Q951.48 583.55 950.73 583.55L950.73 583.55Q949.75 583.55 949.21 584.35Q948.68 585.14 948.68 586.56L948.68 586.56Q948.68 587.97 949.21 588.78Q949.75 589.60 950.73 589.60L950.73 589.60Q951.48 589.60 951.95 589.11Q952.43 588.62 952.58 587.74L952.58 587.74L955.73 588.25Q955.47 590.09 954.14 591.15Q952.80 592.21 950.69 592.21ZM957.50 595.83L957.50 595.83L958.26 593.34L958.69 593.46Q959.61 593.70 960.17 593.43Q960.74 593.15 960.70 592.48L960.70 592.48L960.69 592.02L956.62 581.08L960.21 581.08L961.84 586.42Q962.06 587.13 962.20 587.83Q962.35 588.53 962.49 589.27L962.49 589.27Q962.65 588.52 962.84 587.82Q963.02 587.12 963.25 586.42L963.25 586.42L965.00 581.08L968.55 581.08L963.97 593.15Q963.47 594.48 962.49 595.32Q961.50 596.16 959.66 596.16L959.66 596.16Q958.35 596.16 957.50 595.83ZM973.30 592L969.89 592L969.89 581.08L973.02 581.08L973.18 583.25Q973.63 582.02 974.48 581.48Q975.34 580.94 976.32 580.94L976.32 580.94Q977.36 580.94 978.05 581.53Q978.74 582.13 979.14 583.46L979.14 583.46Q979.63 582.12 980.61 581.53Q981.58 580.94 982.68 580.94L982.68 580.94Q984.21 580.94 985.20 581.92Q986.18 582.91 986.18 584.64L986.18 584.64L986.18 592L982.77 592L982.77 585.41Q982.77 584.58 982.34 584.15Q981.91 583.72 981.24 583.72L981.24 583.72Q980.51 583.72 980.09 584.19Q979.67 584.67 979.67 585.45L979.67 585.45L979.67 592L976.40 592L976.40 585.36Q976.40 584.61 975.98 584.16Q975.55 583.72 974.88 583.72L974.88 583.72Q974.19 583.72 973.74 584.19Q973.30 584.66 973.30 585.52L973.30 585.52L973.30 592ZM993.50 592.21L993.50 592.21Q991.79 592.21 990.56 591.50Q989.33 590.79 988.67 589.52Q988.01 588.26 988.01 586.58L988.01 586.58Q988.01 584.90 988.67 583.63Q989.33 582.36 990.56 581.65Q991.79 580.95 993.50 580.95L993.50 580.95Q995.21 580.95 996.44 581.65Q997.66 582.36 998.32 583.63Q998.98 584.90 998.98 586.58L998.98 586.58Q998.98 588.26 998.32 589.52Q997.66 590.79 996.44 591.50Q995.21 592.21 993.50 592.21ZM993.50 589.60L993.50 589.60Q994.48 589.60 995.00 588.76Q995.51 587.93 995.51 586.56L995.51 586.56Q995.51 585.19 995.00 584.37Q994.48 583.55 993.50 583.55L993.50 583.55Q992.53 583.55 992.01 584.37Q991.49 585.19 991.49 586.56L991.49 586.56Q991.49 587.93 992.01 588.76Q992.53 589.60 993.50 589.60ZM1004.22 592L1000.82 592L1000.82 581.08L1004.13 581.08L1004.13 583.07L1004.24 583.07Q1004.54 582 1005.22 581.47Q1005.89 580.95 1006.79 580.95L1006.79 580.95Q1007.29 580.95 1007.76 581.06L1007.76 581.06L1007.76 584.03Q1007.52 583.94 1007.12 583.90Q1006.72 583.86 1006.41 583.86L1006.41 583.86Q1005.46 583.86 1004.84 584.46Q1004.22 585.07 1004.22 586.04L1004.22 586.04L1004.22 592ZM1012.62 592L1009.21 592L1009.21 581.08L1012.53 581.08L1012.53 583.07L1012.64 583.07Q1012.94 582 1013.61 581.47Q1014.29 580.95 1015.19 580.95L1015.19 580.95Q1015.69 580.95 1016.16 581.06L1016.16 581.06L1016.16 584.03Q1015.91 583.94 1015.52 583.90Q1015.12 583.86 1014.81 583.86L1014.81 583.86Q1013.86 583.86 1013.24 584.46Q1012.62 585.07 1012.62 586.04L1012.62 586.04L1012.62 592ZM1022.68 592.21L1022.68 592.21Q1020.97 592.21 1019.74 591.50Q1018.51 590.79 1017.85 589.52Q1017.19 588.26 1017.19 586.58L1017.19 586.58Q1017.19 584.90 1017.85 583.63Q1018.51 582.36 1019.74 581.65Q1020.97 580.95 1022.68 580.95L1022.68 580.95Q1024.39 580.95 1025.62 581.65Q1026.84 582.36 1027.50 583.63Q1028.16 584.90 1028.16 586.58L1028.16 586.58Q1028.16 588.26 1027.50 589.52Q1026.84 590.79 1025.62 591.50Q1024.39 592.21 1022.68 592.21ZM1022.68 589.60L1022.68 589.60Q1023.66 589.60 1024.18 588.76Q1024.69 587.93 1024.69 586.56L1024.69 586.56Q1024.69 585.19 1024.18 584.37Q1023.66 583.55 1022.68 583.55L1022.68 583.55Q1021.71 583.55 1021.19 584.37Q1020.67 585.19 1020.67 586.56L1020.67 586.56Q1020.67 587.93 1021.19 588.76Q1021.71 589.60 1022.68 589.60ZM1035.68 592L1032.20 592L1029.02 581.08L1032.58 581.08L1033.38 584.82Q1033.57 585.75 1033.79 586.79Q1034 587.82 1034.21 589.00L1034.21 589.00Q1034.42 587.83 1034.66 586.79Q1034.91 585.75 1035.12 584.82L1035.12 584.82L1035.99 581.08L1039.02 581.08L1039.86 584.82Q1040.06 585.76 1040.31 586.79Q1040.55 587.83 1040.78 589.02L1040.78 589.02Q1040.96 587.84 1041.17 586.80Q1041.37 585.76 1041.57 584.82L1041.57 584.82L1042.36 581.08L1045.98 581.08L1042.77 592L1039.29 592L1038.16 588.08Q1037.99 587.49 1037.82 586.67Q1037.65 585.86 1037.49 585.07L1037.49 585.07Q1037.32 585.86 1037.15 586.67Q1036.99 587.49 1036.81 588.08L1036.81 588.08L1035.68 592ZM1051.01 576.77L1053.92 576.77L1049.23 594.19L1046.32 594.19L1051.01 576.77ZM1058.66 592L1055.25 592L1055.25 581.08L1058.38 581.08L1058.54 583.25Q1058.99 582.02 1059.84 581.48Q1060.70 580.94 1061.69 580.94L1061.69 580.94Q1062.72 580.94 1063.41 581.53Q1064.10 582.13 1064.50 583.46L1064.50 583.46Q1065.00 582.12 1065.97 581.53Q1066.94 580.94 1068.04 580.94L1068.04 580.94Q1069.58 580.94 1070.56 581.92Q1071.54 582.91 1071.54 584.64L1071.54 584.64L1071.54 592L1068.13 592L1068.13 585.41Q1068.13 584.58 1067.70 584.15Q1067.27 583.72 1066.60 583.72L1066.60 583.72Q1065.88 583.72 1065.46 584.19Q1065.04 584.67 1065.04 585.45L1065.04 585.45L1065.04 592L1061.76 592L1061.76 585.36Q1061.76 584.61 1061.34 584.16Q1060.91 583.72 1060.24 583.72L1060.24 583.72Q1059.55 583.72 1059.10 584.19Q1058.66 584.66 1058.66 585.52L1058.66 585.52L1058.66 592ZM1078.86 592.21L1078.86 592.21Q1077.15 592.21 1075.92 591.50Q1074.69 590.79 1074.03 589.52Q1073.38 588.26 1073.38 586.58L1073.38 586.58Q1073.38 584.90 1074.03 583.63Q1074.69 582.36 1075.92 581.65Q1077.15 580.95 1078.86 580.95L1078.86 580.95Q1080.57 580.95 1081.80 581.65Q1083.02 582.36 1083.68 583.63Q1084.34 584.90 1084.34 586.58L1084.34 586.58Q1084.34 588.26 1083.68 589.52Q1083.02 590.79 1081.80 591.50Q1080.57 592.21 1078.86 592.21ZM1078.86 589.60L1078.86 589.60Q1079.84 589.60 1080.36 588.76Q1080.88 587.93 1080.88 586.56L1080.88 586.56Q1080.88 585.19 1080.36 584.37Q1079.84 583.55 1078.86 583.55L1078.86 583.55Q1077.89 583.55 1077.37 584.37Q1076.85 585.19 1076.85 586.56L1076.85 586.56Q1076.85 587.93 1077.37 588.76Q1077.89 589.60 1078.86 589.60ZM1093.17 592L1089.22 592L1085.27 581.08L1088.86 581.08L1090.49 586.42Q1090.72 587.16 1090.90 587.91Q1091.08 588.66 1091.26 589.45L1091.26 589.45Q1091.41 588.66 1091.59 587.91Q1091.76 587.17 1091.99 586.42L1091.99 586.42L1093.59 581.08L1097.14 581.08L1093.17 592ZM1101.89 592L1098.48 592L1098.48 581.08L1101.89 581.08L1101.89 592ZM1100.18 579.80L1100.18 579.80Q1099.46 579.80 1098.94 579.32Q1098.42 578.85 1098.42 578.16L1098.42 578.16Q1098.42 577.48 1098.94 577Q1099.46 576.52 1100.18 576.52L1100.18 576.52Q1100.91 576.52 1101.43 577Q1101.95 577.48 1101.95 578.16L1101.95 578.16Q1101.95 578.85 1101.43 579.32Q1100.91 579.80 1100.18 579.80ZM1109.23 592.21L1109.23 592.21Q1106.67 592.21 1105.20 590.71Q1103.73 589.21 1103.73 586.58L1103.73 586.58Q1103.73 584.90 1104.39 583.63Q1105.04 582.36 1106.26 581.65Q1107.47 580.95 1109.11 580.95L1109.11 580.95Q1110.64 580.95 1111.83 581.58Q1113.01 582.22 1113.69 583.47Q1114.37 584.71 1114.37 586.51L1114.37 586.51L1114.37 587.37L1107.08 587.37Q1107.13 588.55 1107.73 589.14Q1108.33 589.73 1109.29 589.73L1109.29 589.73Q1109.98 589.73 1110.47 589.45Q1110.97 589.16 1111.18 588.61L1111.18 588.61L1114.21 589.11Q1113.80 590.53 1112.51 591.37Q1111.22 592.21 1109.23 592.21ZM1107.10 585.39L1107.10 585.39L1111.14 585.39Q1111.04 584.46 1110.53 583.94Q1110.03 583.42 1109.14 583.42L1109.14 583.42Q1108.24 583.42 1107.72 583.95Q1107.19 584.48 1107.10 585.39ZM1116.39 584.79L1123.10 584.79L1123.10 587.42L1116.39 587.42L1116.39 584.79ZM1129.51 581.08L1131.47 581.08L1131.47 583.61L1129.51 583.61L1129.51 588.66Q1129.51 589.51 1130.38 589.51L1130.38 589.51Q1130.55 589.51 1130.87 589.47Q1131.19 589.42 1131.32 589.39L1131.32 589.39L1131.76 591.87Q1131.19 592.04 1130.65 592.10Q1130.11 592.16 1129.63 592.16L1129.63 592.16Q1127.90 592.16 1127.00 591.34Q1126.10 590.53 1126.10 588.96L1126.10 588.96L1126.10 583.61L1124.65 583.61L1124.65 581.08L1126.10 581.08L1126.10 578.48L1129.51 578.48L1129.51 581.08ZM1136.63 592L1133.22 592L1133.22 581.08L1136.53 581.08L1136.53 583.07L1136.65 583.07Q1136.94 582 1137.62 581.47Q1138.30 580.95 1139.20 580.95L1139.20 580.95Q1139.69 580.95 1140.16 581.06L1140.16 581.06L1140.16 584.03Q1139.92 583.94 1139.52 583.90Q1139.13 583.86 1138.81 583.86L1138.81 583.86Q1137.87 583.86 1137.25 584.46Q1136.63 585.07 1136.63 586.04L1136.63 586.04L1136.63 592ZM1144.67 592.20L1144.67 592.20Q1143.10 592.20 1142.09 591.39Q1141.08 590.59 1141.08 588.97L1141.08 588.97Q1141.08 587.76 1141.64 587.05Q1142.19 586.34 1143.12 585.99Q1144.04 585.65 1145.14 585.55L1145.14 585.55Q1146.53 585.44 1147.13 585.27Q1147.73 585.10 1147.73 584.59L1147.73 584.59L1147.73 584.55Q1147.73 583.98 1147.33 583.67Q1146.94 583.37 1146.25 583.37L1146.25 583.37Q1145.53 583.37 1145.07 583.67Q1144.62 583.97 1144.48 584.49L1144.48 584.49L1141.39 584.09Q1141.71 582.69 1142.97 581.82Q1144.22 580.95 1146.28 580.95L1146.28 580.95Q1147.63 580.95 1148.73 581.37Q1149.83 581.79 1150.48 582.60Q1151.13 583.42 1151.13 584.59L1151.13 584.59L1151.13 592L1147.93 592L1147.93 590.47L1147.84 590.47Q1146.93 592.20 1144.67 592.20ZM1145.71 589.94L1145.71 589.94Q1146.57 589.94 1147.16 589.43Q1147.76 588.92 1147.76 588.11L1147.76 588.11L1147.76 587.07Q1147.47 587.22 1146.91 587.33Q1146.35 587.44 1145.88 587.52L1145.88 587.52Q1144.30 587.75 1144.30 588.82L1144.30 588.82Q1144.30 589.36 1144.70 589.65Q1145.09 589.94 1145.71 589.94ZM1156.79 592L1153.38 592L1153.38 581.08L1156.79 581.08L1156.79 592ZM1155.08 579.80L1155.08 579.80Q1154.36 579.80 1153.84 579.32Q1153.33 578.85 1153.33 578.16L1153.33 578.16Q1153.33 577.48 1153.84 577Q1154.36 576.52 1155.08 576.52L1155.08 576.52Q1155.82 576.52 1156.33 577Q1156.85 577.48 1156.85 578.16L1156.85 578.16Q1156.85 578.85 1156.33 579.32Q1155.82 579.80 1155.08 579.80ZM1159.05 577.45L1162.46 577.45L1162.46 592L1159.05 592L1159.05 577.45ZM1169.80 592.21L1169.80 592.21Q1167.23 592.21 1165.76 590.71Q1164.29 589.21 1164.29 586.58L1164.29 586.58Q1164.29 584.90 1164.95 583.63Q1165.61 582.36 1166.82 581.65Q1168.03 580.95 1169.67 580.95L1169.67 580.95Q1171.21 580.95 1172.39 581.58Q1173.58 582.22 1174.26 583.47Q1174.94 584.71 1174.94 586.51L1174.94 586.51L1174.94 587.37L1167.64 587.37Q1167.69 588.55 1168.29 589.14Q1168.89 589.73 1169.86 589.73L1169.86 589.73Q1170.54 589.73 1171.04 589.45Q1171.54 589.16 1171.74 588.61L1171.74 588.61L1174.78 589.11Q1174.37 590.53 1173.08 591.37Q1171.78 592.21 1169.80 592.21ZM1167.66 585.39L1167.66 585.39L1171.71 585.39Q1171.61 584.46 1171.10 583.94Q1170.59 583.42 1169.70 583.42L1169.70 583.42Q1168.80 583.42 1168.28 583.95Q1167.76 584.48 1167.66 585.39ZM1180.13 592L1176.72 592L1176.72 581.08L1180.04 581.08L1180.04 583.07L1180.15 583.07Q1180.45 582 1181.12 581.47Q1181.80 580.95 1182.70 580.95L1182.70 580.95Q1183.20 580.95 1183.67 581.06L1183.67 581.06L1183.67 584.03Q1183.42 583.94 1183.03 583.90Q1182.63 583.86 1182.32 583.86L1182.32 583.86Q1181.37 583.86 1180.75 584.46Q1180.13 585.07 1180.13 586.04L1180.13 586.04L1180.13 592Z"/>
</svg>
