<svg xmlns="http://www.w3.org/2000/svg" viewBox="0 0 1280 640" fill="none">
  <title>movie-trailer — Find YouTube trailers for any movie</title>
  <defs>
    <radialGradient id="g" cx="80%" cy="20%" r="80%">
      <stop offset="0%" stop-color="#7c3aed" stop-opacity="0.20"/>
      <stop offset="60%" stop-color="#0a0510" stop-opacity="0"/>
    </radialGradient>
    <pattern id="grid" width="40" height="40" patternUnits="userSpaceOnUse">
      <path d="M 40 0 L 0 0 0 40" fill="none" stroke="#ffffff" stroke-opacity="0.04" stroke-width="1"/>
    </pattern>
  </defs>
  <rect width="1280" height="640" fill="#0a0510"/>
  <rect width="1280" height="640" fill="url(#grid)"/>
  <rect width="1280" height="640" fill="url(#g)"/>

  <!-- Large decorative mark on right (low opacity) -->
  <g transform="translate(820, 120) scale(1.7)" opacity="0.10">
    <rect x="0" y="0" width="256" height="256" rx="56" fill="#7c3aed"/>
    
			<g fill="#ffffff">
				<path d="M68 80 L68 176 L132 128 Z"/>
				<path d="M138 80 L138 176 L202 128 Z"/>
			</g>
  </g>

  <!-- Small primary mark, top-left -->
  <g transform="translate(96, 96) scale(0.47)">
    <rect x="0" y="0" width="256" height="256" rx="56" fill="#7c3aed"/>
    
			<g fill="#ffffff">
				<path d="M68 80 L68 176 L132 128 Z"/>
				<path d="M138 80 L138 176 L202 128 Z"/>
			</g>
  </g>

  <!-- Package-type pill, top-right -->
  <g transform="translate(965, 80)">
    <rect x="0" y="0" width="219" height="36" rx="18" fill="#7c3aed" fill-opacity="0.16" stroke="#7c3aed" stroke-opacity="0.50" stroke-width="1"/>
    <g transform="translate(18, 24.5)"><path fill="#7c3aed" d="M5.13 0L1.25 0L1.25-16.01L5.41-16.01L9.88-8.78Q10.42-7.88 10.92-6.92Q11.43-5.95 11.93-4.64L11.93-4.64Q11.85-5.84 11.78-7.10Q11.71-8.36 11.71-9.20L11.71-9.20L11.71-16.01L15.60-16.01L15.60 0L11.42 0L7.33-6.63Q6.85-7.40 6.47-8.10Q6.09-8.80 5.72-9.56Q5.35-10.32 4.90-11.28L4.90-11.28Q5.00-9.86 5.06-8.62Q5.13-7.38 5.13-6.63L5.13-6.63L5.13 0ZM23.20 0L19.41 0L19.41-16.01L25.96-16.01Q27.77-16.01 29.08-15.31Q30.39-14.61 31.09-13.36Q31.80-12.12 31.80-10.47L31.80-10.47Q31.80-8.82 31.08-7.59Q30.36-6.36 29.02-5.68Q27.69-5.00 25.86-5.00L25.86-5.00L23.20-5.00L23.20 0ZM23.20-12.93L23.20-7.99L25.17-7.99Q26.50-7.99 27.18-8.67Q27.86-9.36 27.86-10.47L27.86-10.47Q27.86-11.60 27.18-12.27Q26.49-12.93 25.16-12.93L25.16-12.93L23.20-12.93ZM38.87 0L35.07 0L35.07-16.01L40.98-16.01L43.02-9.78Q43.18-9.23 43.39-8.35Q43.60-7.47 43.81-6.45Q44.03-5.42 44.22-4.47L44.22-4.47Q44.41-5.42 44.62-6.44Q44.82-7.46 45.03-8.34Q45.24-9.23 45.40-9.78L45.40-9.78L47.41-16.01L53.33-16.01L53.33 0L49.52 0L49.52-6.90Q49.52-7.51 49.55-8.50Q49.57-9.50 49.60-10.66Q49.64-11.82 49.66-12.89L49.66-12.89Q49.39-11.75 49.09-10.60Q48.80-9.45 48.53-8.48Q48.26-7.51 48.07-6.90L48.07-6.90L45.79 0L42.62 0L40.31-6.90Q40.13-7.49 39.86-8.42Q39.59-9.36 39.30-10.47Q39.00-11.58 38.73-12.71L38.73-12.71Q38.76-11.66 38.79-10.54Q38.82-9.42 38.85-8.46Q38.87-7.50 38.87-6.90L38.87-6.90L38.87 0ZM67.07 0L63.28 0L63.28-16.01L69.83-16.01Q71.63-16.01 72.95-15.31Q74.26-14.61 74.96-13.36Q75.66-12.12 75.66-10.47L75.66-10.47Q75.66-8.82 74.94-7.59Q74.22-6.36 72.89-5.68Q71.56-5.00 69.72-5.00L69.72-5.00L67.07-5.00L67.07 0ZM67.07-12.93L67.07-7.99L69.03-7.99Q70.37-7.99 71.05-8.67Q71.73-9.36 71.73-10.47L71.73-10.47Q71.73-11.60 71.04-12.27Q70.36-12.93 69.02-12.93L69.02-12.93L67.07-12.93ZM82.41 0L78.20 0L83.54-16.01L88.62-16.01L94.12 0L89.86 0L88.78-3.41L83.45-3.41L82.41 0ZM84.56-6.99L84.34-6.31L87.85-6.31L87.64-6.99Q87.22-8.37 86.82-9.87Q86.43-11.38 86.04-12.99L86.04-12.99Q85.67-11.37 85.31-9.86Q84.95-8.36 84.56-6.99L84.56-6.99ZM104.40 0.21L104.40 0.21Q102.24 0.21 100.52-0.74Q98.81-1.70 97.82-3.53Q96.82-5.36 96.82-7.99L96.82-7.99Q96.82-10.63 97.83-12.47Q98.83-14.31 100.55-15.26Q102.27-16.22 104.40-16.22L104.40-16.22Q106.30-16.22 107.81-15.53Q109.33-14.85 110.28-13.54Q111.24-12.22 111.46-10.36L111.46-10.36L107.63-10.36Q107.45-11.53 106.61-12.21Q105.78-12.89 104.49-12.89L104.49-12.89Q102.73-12.89 101.72-11.61Q100.70-10.32 100.70-7.99L100.70-7.99Q100.70-5.59 101.72-4.35Q102.74-3.12 104.47-3.12L104.47-3.12Q105.76-3.12 106.60-3.80Q107.44-4.48 107.64-5.65L107.64-5.65L111.47-5.65Q111.37-4.58 110.86-3.53Q110.35-2.49 109.46-1.64Q108.56-0.79 107.30-0.29Q106.03 0.21 104.40 0.21ZM118.66 0L114.87 0L114.87-16.01L118.66-16.01L118.66-12.07L118.60-8.21Q119.07-9.02 119.63-9.82Q120.19-10.62 120.99-11.63L120.99-11.63L124.56-16.01L129.11-16.01L123.31-9.10L129.34 0L124.88 0L120.70-6.61L118.66-4.30L118.66 0ZM135.90 0L131.69 0L137.03-16.01L142.11-16.01L147.61 0L143.35 0L142.27-3.41L136.94-3.41L135.90 0ZM138.05-6.99L137.83-6.31L141.35-6.31L141.13-6.99Q140.71-8.37 140.31-9.87Q139.92-11.38 139.53-12.99L139.53-12.99Q139.17-11.37 138.81-9.86Q138.45-8.36 138.05-6.99L138.05-6.99ZM158.00 0.21L158.00 0.21Q155.71 0.21 153.98-0.78Q152.25-1.77 151.28-3.61Q150.31-5.45 150.31-7.97L150.31-7.97Q150.31-10.59 151.34-12.43Q152.36-14.28 154.09-15.25Q155.81-16.22 157.95-16.22L157.95-16.22Q159.79-16.22 161.28-15.53Q162.78-14.83 163.73-13.60Q164.68-12.38 164.87-10.79L164.87-10.79L161.04-10.79Q160.77-11.78 159.99-12.34Q159.21-12.89 158.02-12.89L158.02-12.89Q156.27-12.89 155.23-11.62Q154.19-10.34 154.19-8.02L154.19-8.02Q154.19-5.68 155.20-4.40Q156.21-3.12 158.03-3.12L158.03-3.12Q159.62-3.12 160.48-3.88Q161.35-4.64 161.38-5.94L161.38-5.94L158.18-5.94L158.18-8.72L165.04-8.72L165.04-6.62Q165.04-4.48 164.13-2.95Q163.23-1.42 161.64-0.60Q160.05 0.21 158.00 0.21ZM179.65 0L168.55 0L168.55-16.01L179.66-16.01L179.66-12.91L172.35-12.91L172.35-9.60L179.08-9.60L179.08-6.57L172.35-6.57L172.35-3.09L179.65-3.09L179.65 0Z"/></g>
  </g>

  <!-- Wordmark + tagline -->
  <path fill="#fafafa" d="M136.25 360L108.98 360L108.98 272.66L134.06 272.66L135.31 290Q138.91 280.16 145.74 275.82Q152.58 271.48 160.47 271.48L160.47 271.48Q168.75 271.48 174.26 276.25Q179.77 281.02 182.97 291.72L182.97 291.72Q186.95 280.94 194.73 276.21Q202.50 271.48 211.33 271.48L211.33 271.48Q223.59 271.48 231.45 279.38Q239.30 287.27 239.30 301.09L239.30 301.09L239.30 360L212.03 360L212.03 307.27Q212.03 300.63 208.59 297.19Q205.16 293.75 199.77 293.75L199.77 293.75Q193.98 293.75 190.63 297.54Q187.27 301.33 187.27 307.58L187.27 307.58L187.27 360L161.09 360L161.09 306.88Q161.09 300.86 157.70 297.30Q154.30 293.75 148.91 293.75L148.91 293.75Q143.36 293.75 139.80 297.50Q136.25 301.25 136.25 308.13L136.25 308.13L136.25 360ZM289.89 361.64L289.89 361.64Q276.22 361.64 266.38 355.98Q256.53 350.31 251.26 340.20Q245.98 330.08 245.98 316.64L245.98 316.64Q245.98 303.20 251.26 293.05Q256.53 282.89 266.38 277.23Q276.22 271.56 289.89 271.56L289.89 271.56Q303.56 271.56 313.37 277.23Q323.17 282.89 328.45 293.05Q333.72 303.20 333.72 316.64L333.72 316.64Q333.72 330.08 328.45 340.20Q323.17 350.31 313.37 355.98Q303.56 361.64 289.89 361.64ZM289.89 340.78L289.89 340.78Q297.70 340.78 301.84 334.10Q305.98 327.42 305.98 316.48L305.98 316.48Q305.98 305.55 301.84 298.98Q297.70 292.42 289.89 292.42L289.89 292.42Q282.08 292.42 277.94 298.98Q273.80 305.55 273.80 316.48L273.80 316.48Q273.80 327.42 277.94 334.10Q282.08 340.78 289.89 340.78ZM396.34 360L364.78 360L333.14 272.66L361.89 272.66L374.94 315.39Q376.73 321.25 378.18 327.27Q379.63 333.28 381.03 339.61L381.03 339.61Q382.28 333.28 383.69 327.30Q385.09 321.33 386.89 315.39L386.89 315.39L399.70 272.66L428.14 272.66L396.34 360ZM458.11 360L430.84 360L430.84 272.66L458.11 272.66L458.11 360ZM444.44 262.42L444.44 262.42Q438.66 262.42 434.52 258.59Q430.38 254.77 430.38 249.30L430.38 249.30Q430.38 243.83 434.52 240Q438.66 236.17 444.44 236.17L444.44 236.17Q450.30 236.17 454.44 240Q458.58 243.83 458.58 249.30L458.58 249.30Q458.58 254.77 454.44 258.59Q450.30 262.42 444.44 262.42ZM508.86 361.64L508.86 361.64Q488.31 361.64 476.55 349.65Q464.80 337.66 464.80 316.64L464.80 316.64Q464.80 303.20 470.07 293.05Q475.34 282.89 485.03 277.23Q494.72 271.56 507.84 271.56L507.84 271.56Q520.11 271.56 529.60 276.68Q539.09 281.80 544.52 291.76Q549.95 301.72 549.95 316.09L549.95 316.09L549.95 322.97L491.59 322.97Q491.98 332.42 496.79 337.15Q501.59 341.88 509.33 341.88L509.33 341.88Q514.80 341.88 518.78 339.57Q522.77 337.27 524.41 332.89L524.41 332.89L548.70 336.88Q545.42 348.20 535.07 354.92Q524.72 361.64 508.86 361.64ZM491.75 307.11L491.75 307.11L524.09 307.11Q523.31 299.69 519.25 295.51Q515.19 291.33 508.08 291.33L508.08 291.33Q500.89 291.33 496.71 295.59Q492.53 299.84 491.75 307.11ZM558.13 302.34L611.80 302.34L611.80 323.36L558.13 323.36L558.13 302.34ZM655.05 272.66L670.75 272.66L670.75 292.89L655.05 292.89L655.05 333.28Q655.05 340.08 662 340.08L662 340.08Q663.41 340.08 665.95 339.73Q668.48 339.38 669.58 339.14L669.58 339.14L673.09 358.98Q668.48 360.31 664.19 360.78Q659.89 361.25 656.06 361.25L656.06 361.25Q642.16 361.25 634.97 354.73Q627.78 348.20 627.78 335.70L627.78 335.70L627.78 292.89L616.22 292.89L616.22 272.66L627.78 272.66L627.78 251.88L655.05 251.88L655.05 272.66ZM704 360L676.73 360L676.73 272.66L703.22 272.66L703.22 288.59L704.16 288.59Q706.50 280 711.93 275.78Q717.36 271.56 724.55 271.56L724.55 271.56Q728.53 271.56 732.28 272.50L732.28 272.50L732.28 296.25Q730.33 295.55 727.16 295.20Q724 294.84 721.50 294.84L721.50 294.84Q713.92 294.84 708.96 299.69Q704 304.53 704 312.34L704 312.34L704 360ZM760.38 361.56L760.38 361.56Q747.80 361.56 739.71 355.16Q731.63 348.75 731.63 335.78L731.63 335.78Q731.63 326.09 736.08 320.39Q740.53 314.69 747.91 311.95Q755.30 309.22 764.13 308.44L764.13 308.44Q775.22 307.50 780.02 306.13Q784.83 304.77 784.83 300.70L784.83 300.70L784.83 300.39Q784.83 295.86 781.66 293.40Q778.50 290.94 772.95 290.94L772.95 290.94Q767.25 290.94 763.58 293.36Q759.91 295.78 758.81 299.92L758.81 299.92L734.13 296.72Q736.70 285.55 746.74 278.55Q756.78 271.56 773.19 271.56L773.19 271.56Q784.05 271.56 792.84 274.92Q801.63 278.28 806.82 284.80Q812.02 291.33 812.02 300.70L812.02 300.70L812.02 360L786.39 360L786.39 347.73L785.69 347.73Q778.42 361.56 760.38 361.56ZM768.66 343.52L768.66 343.52Q775.53 343.52 780.30 339.45Q785.06 335.39 785.06 328.91L785.06 328.91L785.06 320.55Q782.72 321.80 778.27 322.66Q773.81 323.52 769.98 324.14L769.98 324.14Q757.41 326.02 757.41 334.53L757.41 334.53Q757.41 338.91 760.57 341.21Q763.73 343.52 768.66 343.52ZM849.33 360L822.06 360L822.06 272.66L849.33 272.66L849.33 360ZM835.66 262.42L835.66 262.42Q829.88 262.42 825.73 258.59Q821.59 254.77 821.59 249.30L821.59 249.30Q821.59 243.83 825.73 240Q829.88 236.17 835.66 236.17L835.66 236.17Q841.52 236.17 845.66 240Q849.80 243.83 849.80 249.30L849.80 249.30Q849.80 254.77 845.66 258.59Q841.52 262.42 835.66 262.42ZM859.38 243.59L886.64 243.59L886.64 360L859.38 360L859.38 243.59ZM937.39 361.64L937.39 361.64Q916.84 361.64 905.09 349.65Q893.33 337.66 893.33 316.64L893.33 316.64Q893.33 303.20 898.60 293.05Q903.88 282.89 913.56 277.23Q923.25 271.56 936.38 271.56L936.38 271.56Q948.64 271.56 958.13 276.68Q967.63 281.80 973.05 291.76Q978.48 301.72 978.48 316.09L978.48 316.09L978.48 322.97L920.13 322.97Q920.52 332.42 925.32 337.15Q930.13 341.88 937.86 341.88L937.86 341.88Q943.33 341.88 947.31 339.57Q951.30 337.27 952.94 332.89L952.94 332.89L977.23 336.88Q973.95 348.20 963.60 354.92Q953.25 361.64 937.39 361.64ZM920.28 307.11L920.28 307.11L952.63 307.11Q951.84 299.69 947.78 295.51Q943.72 291.33 936.61 291.33L936.61 291.33Q929.42 291.33 925.24 295.59Q921.06 299.84 920.28 307.11ZM1012.05 360L984.78 360L984.78 272.66L1011.27 272.66L1011.27 288.59L1012.20 288.59Q1014.55 280 1019.98 275.78Q1025.41 271.56 1032.59 271.56L1032.59 271.56Q1036.58 271.56 1040.33 272.50L1040.33 272.50L1040.33 296.25Q1038.38 295.55 1035.21 295.20Q1032.05 294.84 1029.55 294.84L1029.55 294.84Q1021.97 294.84 1017.01 299.69Q1012.05 304.53 1012.05 312.34L1012.05 312.34L1012.05 360Z"/>
  <path fill="#a78bfa" d="M107.33 410L101.81 410L101.81 386.72L117.64 386.72L117.64 391.22L107.33 391.22L107.33 397.13L116.63 397.13L116.63 401.53L107.33 401.53L107.33 410ZM125.66 410L120.21 410L120.21 392.53L125.66 392.53L125.66 410ZM122.93 390.48L122.93 390.48Q121.77 390.48 120.95 389.72Q120.12 388.95 120.12 387.86L120.12 387.86Q120.12 386.77 120.95 386Q121.77 385.23 122.93 385.23L122.93 385.23Q124.10 385.23 124.93 386Q125.76 386.77 125.76 387.86L125.76 387.86Q125.76 388.95 124.93 389.72Q124.10 390.48 122.93 390.48ZM134.41 400.03L134.41 400.03L134.41 410L128.95 410L128.95 392.53L134.08 392.53L134.17 396.30Q134.86 394.48 136.19 393.40Q137.52 392.31 139.64 392.31L139.64 392.31Q142.38 392.31 144.03 394.11Q145.69 395.91 145.69 398.88L145.69 398.88L145.69 410L140.24 410L140.24 399.94Q140.24 398.47 139.49 397.63Q138.74 396.80 137.39 396.80L137.39 396.80Q136.06 396.80 135.24 397.65Q134.41 398.50 134.41 400.03ZM155.29 410.25L155.29 410.25Q153.35 410.25 151.76 409.24Q150.17 408.23 149.23 406.24Q148.29 404.25 148.29 401.28L148.29 401.28Q148.29 398.22 149.27 396.23Q150.24 394.25 151.83 393.28Q153.42 392.31 155.24 392.31L155.24 392.31Q156.63 392.31 157.62 392.79Q158.60 393.27 159.24 394.01Q159.87 394.75 160.20 395.53L160.20 395.53L160.32 395.53L160.32 386.72L165.76 386.72L165.76 410L160.38 410L160.38 407.17L160.20 407.17Q159.68 408.36 158.49 409.30Q157.29 410.25 155.29 410.25ZM157.15 406L157.15 406Q158.70 406 159.57 404.71Q160.45 403.42 160.45 401.28L160.45 401.28Q160.45 399.11 159.58 397.84Q158.71 396.58 157.15 396.58L157.15 396.58Q155.57 396.58 154.74 397.87Q153.90 399.16 153.90 401.28L153.90 401.28Q153.90 403.41 154.74 404.70Q155.57 406 157.15 406ZM188.81 410L183.32 410L183.32 401.56L174.67 386.72L181.13 386.72L184.79 393.86Q185.53 395.28 186.09 396.86L186.09 396.86Q186.63 395.28 187.34 393.86L187.34 393.86L190.82 386.72L197.26 386.72L188.81 401.56L188.81 410ZM207.58 410.33L207.58 410.33Q204.85 410.33 202.88 409.20Q200.91 408.06 199.85 406.04Q198.80 404.02 198.80 401.33L198.80 401.33Q198.80 398.64 199.85 396.61Q200.91 394.58 202.88 393.45Q204.85 392.31 207.58 392.31L207.58 392.31Q210.31 392.31 212.28 393.45Q214.24 394.58 215.29 396.61Q216.35 398.64 216.35 401.33L216.35 401.33Q216.35 404.02 215.29 406.04Q214.24 408.06 212.28 409.20Q210.31 410.33 207.58 410.33ZM207.58 406.16L207.58 406.16Q209.14 406.16 209.97 404.82Q210.80 403.48 210.80 401.30L210.80 401.30Q210.80 399.11 209.97 397.80Q209.14 396.48 207.58 396.48L207.58 396.48Q206.02 396.48 205.19 397.80Q204.36 399.11 204.36 401.30L204.36 401.30Q204.36 403.48 205.19 404.82Q206.02 406.16 207.58 406.16ZM225.03 410.22L225.03 410.22Q222.28 410.22 220.62 408.42Q218.96 406.63 218.96 403.66L218.96 403.66L218.96 392.53L224.42 392.53L224.42 402.59Q224.42 404.06 225.17 404.90Q225.93 405.73 227.26 405.73L227.26 405.73Q228.60 405.73 229.42 404.88Q230.24 404.03 230.24 402.50L230.24 402.50L230.24 392.53L235.70 392.53L235.70 410L230.57 410L230.49 406.22Q229.79 408.05 228.46 409.13Q227.14 410.22 225.03 410.22ZM245.25 391.22L238.21 391.22L238.21 386.72L257.80 386.72L257.80 391.22L250.75 391.22L250.75 410L245.25 410L245.25 391.22ZM266.37 410.22L266.37 410.22Q263.62 410.22 261.96 408.42Q260.31 406.63 260.31 403.66L260.31 403.66L260.31 392.53L265.76 392.53L265.76 402.59Q265.76 404.06 266.52 404.90Q267.28 405.73 268.60 405.73L268.60 405.73Q269.95 405.73 270.77 404.88Q271.59 404.03 271.59 402.50L271.59 402.50L271.59 392.53L277.04 392.53L277.04 410L271.92 410L271.84 406.22Q271.14 408.05 269.81 409.13Q268.48 410.22 266.37 410.22ZM290.80 410.25L290.80 410.25Q288.80 410.25 287.60 409.30Q286.41 408.36 285.89 407.17L285.89 407.17L285.71 407.17L285.71 410L280.32 410L280.32 386.72L285.77 386.72L285.77 395.53L285.89 395.53Q286.22 394.75 286.85 394.01Q287.47 393.27 288.46 392.79Q289.44 392.31 290.83 392.31L290.83 392.31Q292.68 392.31 294.26 393.28Q295.85 394.25 296.82 396.23Q297.80 398.22 297.80 401.28L297.80 401.28Q297.80 404.25 296.85 406.24Q295.91 408.23 294.32 409.24Q292.74 410.25 290.80 410.25ZM288.94 406L288.94 406Q290.52 406 291.35 404.70Q292.19 403.41 292.19 401.28L292.19 401.28Q292.19 399.16 291.35 397.87Q290.52 396.58 288.94 396.58L288.94 396.58Q287.38 396.58 286.51 397.84Q285.64 399.11 285.64 401.28L285.64 401.28Q285.64 403.42 286.51 404.71Q287.38 406 288.94 406ZM308.54 410.33L308.54 410.33Q304.43 410.33 302.08 407.93Q299.73 405.53 299.73 401.33L299.73 401.33Q299.73 398.64 300.78 396.61Q301.84 394.58 303.78 393.45Q305.71 392.31 308.34 392.31L308.34 392.31Q310.79 392.31 312.69 393.34Q314.59 394.36 315.68 396.35Q316.76 398.34 316.76 401.22L316.76 401.22L316.76 402.59L305.09 402.59Q305.17 404.48 306.13 405.43Q307.09 406.38 308.64 406.38L308.64 406.38Q309.73 406.38 310.53 405.91Q311.32 405.45 311.65 404.58L311.65 404.58L316.51 405.38Q315.86 407.64 313.78 408.98Q311.71 410.33 308.54 410.33ZM305.12 399.42L305.12 399.42L311.59 399.42Q311.43 397.94 310.62 397.10Q309.81 396.27 308.39 396.27L308.39 396.27Q306.95 396.27 306.11 397.12Q305.28 397.97 305.12 399.42ZM332.26 392.53L335.40 392.53L335.40 396.58L332.26 396.58L332.26 404.66Q332.26 406.02 333.65 406.02L333.65 406.02Q333.93 406.02 334.44 405.95Q334.95 405.88 335.17 405.83L335.17 405.83L335.87 409.80Q334.95 410.06 334.09 410.16Q333.23 410.25 332.47 410.25L332.47 410.25Q329.68 410.25 328.25 408.95Q326.81 407.64 326.81 405.14L326.81 405.14L326.81 396.58L324.50 396.58L324.50 392.53L326.81 392.53L326.81 388.38L332.26 388.38L332.26 392.53ZM343.33 410L337.88 410L337.88 392.53L343.18 392.53L343.18 395.72L343.36 395.72Q343.83 394 344.92 393.16Q346.00 392.31 347.44 392.31L347.44 392.31Q348.24 392.31 348.99 392.50L348.99 392.50L348.99 397.25Q348.60 397.11 347.97 397.04Q347.33 396.97 346.83 396.97L346.83 396.97Q345.32 396.97 344.32 397.94Q343.33 398.91 343.33 400.47L343.33 400.47L343.33 410ZM355.89 410.31L355.89 410.31Q353.37 410.31 351.75 409.03Q350.14 407.75 350.14 405.16L350.14 405.16Q350.14 403.22 351.03 402.08Q351.92 400.94 353.40 400.39Q354.87 399.84 356.64 399.69L356.64 399.69Q358.86 399.50 359.82 399.23Q360.78 398.95 360.78 398.14L360.78 398.14L360.78 398.08Q360.78 397.17 360.15 396.68Q359.51 396.19 358.40 396.19L358.40 396.19Q357.26 396.19 356.53 396.67Q355.79 397.16 355.58 397.98L355.58 397.98L350.64 397.34Q351.15 395.11 353.16 393.71Q355.17 392.31 358.45 392.31L358.45 392.31Q360.62 392.31 362.38 392.98Q364.14 393.66 365.18 394.96Q366.22 396.27 366.22 398.14L366.22 398.14L366.22 410L361.09 410L361.09 407.55L360.95 407.55Q359.50 410.31 355.89 410.31ZM357.54 406.70L357.54 406.70Q358.92 406.70 359.87 405.89Q360.83 405.08 360.83 403.78L360.83 403.78L360.83 402.11Q360.36 402.36 359.47 402.53Q358.58 402.70 357.81 402.83L357.81 402.83Q355.29 403.20 355.29 404.91L355.29 404.91Q355.29 405.78 355.93 406.24Q356.56 406.70 357.54 406.70ZM374.96 410L369.51 410L369.51 392.53L374.96 392.53L374.96 410ZM372.22 390.48L372.22 390.48Q371.07 390.48 370.24 389.72Q369.41 388.95 369.41 387.86L369.41 387.86Q369.41 386.77 370.24 386Q371.07 385.23 372.22 385.23L372.22 385.23Q373.40 385.23 374.22 386Q375.05 386.77 375.05 387.86L375.05 387.86Q375.05 388.95 374.22 389.72Q373.40 390.48 372.22 390.48ZM378.25 386.72L383.70 386.72L383.70 410L378.25 410L378.25 386.72ZM395.13 410.33L395.13 410.33Q391.02 410.33 388.67 407.93Q386.32 405.53 386.32 401.33L386.32 401.33Q386.32 398.64 387.37 396.61Q388.43 394.58 390.37 393.45Q392.30 392.31 394.93 392.31L394.93 392.31Q397.38 392.31 399.28 393.34Q401.18 394.36 402.26 396.35Q403.35 398.34 403.35 401.22L403.35 401.22L403.35 402.59L391.68 402.59Q391.76 404.48 392.72 405.43Q393.68 406.38 395.22 406.38L395.22 406.38Q396.32 406.38 397.12 405.91Q397.91 405.45 398.24 404.58L398.24 404.58L403.10 405.38Q402.44 407.64 400.37 408.98Q398.30 410.33 395.13 410.33ZM391.71 399.42L391.71 399.42L398.18 399.42Q398.02 397.94 397.21 397.10Q396.40 396.27 394.97 396.27L394.97 396.27Q393.54 396.27 392.70 397.12Q391.87 397.97 391.71 399.42ZM411.34 410L405.89 410L405.89 392.53L411.19 392.53L411.19 395.72L411.37 395.72Q411.84 394 412.93 393.16Q414.01 392.31 415.45 392.31L415.45 392.31Q416.25 392.31 417.00 392.50L417.00 392.50L417.00 397.25Q416.61 397.11 415.97 397.04Q415.34 396.97 414.84 396.97L414.84 396.97Q413.33 396.97 412.33 397.94Q411.34 398.91 411.34 400.47L411.34 400.47L411.34 410ZM426.37 410.33L426.37 410.33Q423.01 410.33 420.84 408.91Q418.68 407.50 418.23 405L418.23 405L423.29 404.20Q423.62 405.34 424.40 405.92Q425.18 406.50 426.57 406.50L426.57 406.50Q427.71 406.50 428.37 406.10Q429.02 405.70 429.02 405.05L429.02 405.05Q429.02 403.91 426.88 403.48L426.88 403.48L423.83 402.89Q418.66 401.91 418.66 397.86L418.66 397.86Q418.66 395.25 420.75 393.78Q422.83 392.31 426.35 392.31L426.35 392.31Q429.63 392.31 431.62 393.61Q433.60 394.91 434.05 397.16L434.05 397.16L429.24 397.92Q428.71 396.06 426.44 396.06L426.44 396.06Q425.46 396.06 424.78 396.46Q424.10 396.86 424.10 397.53L424.10 397.53Q424.10 398.06 424.52 398.46Q424.94 398.86 426.07 399.08L426.07 399.08L429.41 399.70Q434.55 400.67 434.55 404.42L434.55 404.42Q434.55 406.22 433.50 407.55Q432.44 408.88 430.60 409.60Q428.76 410.33 426.37 410.33ZM450.59 392.53L454.09 392.53L454.09 396.58L450.59 396.58L450.59 410L445.16 410L445.16 396.58L442.23 396.58L442.23 392.53L445.16 392.53L445.16 391.59Q445.16 388.59 446.82 387.11Q448.48 385.63 451.10 385.63L451.10 385.63Q452.26 385.63 453.27 385.80Q454.29 385.98 454.77 386.13L454.77 386.13L453.90 390.11Q453.59 390.03 453.16 389.96Q452.74 389.89 452.32 389.89L452.32 389.89Q451.35 389.89 450.97 390.34Q450.59 390.78 450.59 391.55L450.59 391.55L450.59 392.53ZM464.61 410.33L464.61 410.33Q461.87 410.33 459.91 409.20Q457.94 408.06 456.88 406.04Q455.83 404.02 455.83 401.33L455.83 401.33Q455.83 398.64 456.88 396.61Q457.94 394.58 459.91 393.45Q461.87 392.31 464.61 392.31L464.61 392.31Q467.34 392.31 469.30 393.45Q471.27 394.58 472.32 396.61Q473.37 398.64 473.37 401.33L473.37 401.33Q473.37 404.02 472.32 406.04Q471.27 408.06 469.30 409.20Q467.34 410.33 464.61 410.33ZM464.61 406.16L464.61 406.16Q466.17 406.16 467.00 404.82Q467.83 403.48 467.83 401.30L467.83 401.30Q467.83 399.11 467.00 397.80Q466.17 396.48 464.61 396.48L464.61 396.48Q463.05 396.48 462.22 397.80Q461.39 399.11 461.39 401.30L461.39 401.30Q461.39 403.48 462.22 404.82Q463.05 406.16 464.61 406.16ZM481.45 410L475.99 410L475.99 392.53L481.29 392.53L481.29 395.72L481.48 395.72Q481.95 394 483.03 393.16Q484.12 392.31 485.55 392.31L485.55 392.31Q486.35 392.31 487.10 392.50L487.10 392.50L487.10 397.25Q486.71 397.11 486.08 397.04Q485.45 396.97 484.95 396.97L484.95 396.97Q483.43 396.97 482.44 397.94Q481.45 398.91 481.45 400.47L481.45 400.47L481.45 410ZM500.68 410.31L500.68 410.31Q498.16 410.31 496.55 409.03Q494.93 407.75 494.93 405.16L494.93 405.16Q494.93 403.22 495.82 402.08Q496.71 400.94 498.19 400.39Q499.66 399.84 501.43 399.69L501.43 399.69Q503.65 399.50 504.61 399.23Q505.57 398.95 505.57 398.14L505.57 398.14L505.57 398.08Q505.57 397.17 504.94 396.68Q504.31 396.19 503.20 396.19L503.20 396.19Q502.06 396.19 501.32 396.67Q500.59 397.16 500.37 397.98L500.37 397.98L495.43 397.34Q495.95 395.11 497.95 393.71Q499.96 392.31 503.24 392.31L503.24 392.31Q505.41 392.31 507.17 392.98Q508.93 393.66 509.97 394.96Q511.01 396.27 511.01 398.14L511.01 398.14L511.01 410L505.88 410L505.88 407.55L505.74 407.55Q504.29 410.31 500.68 410.31ZM502.34 406.70L502.34 406.70Q503.71 406.70 504.66 405.89Q505.62 405.08 505.62 403.78L505.62 403.78L505.62 402.11Q505.15 402.36 504.26 402.53Q503.37 402.70 502.60 402.83L502.60 402.83Q500.09 403.20 500.09 404.91L500.09 404.91Q500.09 405.78 500.72 406.24Q501.35 406.70 502.34 406.70ZM519.75 400.03L519.75 400.03L519.75 410L514.30 410L514.30 392.53L519.42 392.53L519.52 396.30Q520.20 394.48 521.53 393.40Q522.86 392.31 524.99 392.31L524.99 392.31Q527.72 392.31 529.38 394.11Q531.03 395.91 531.03 398.88L531.03 398.88L531.03 410L525.58 410L525.58 399.94Q525.58 398.47 524.83 397.63Q524.08 396.80 522.74 396.80L522.74 396.80Q521.41 396.80 520.58 397.65Q519.75 398.50 519.75 400.03ZM534.26 416.13L534.26 416.13L535.48 412.14L536.17 412.33Q537.63 412.72 538.54 412.28Q539.45 411.84 539.38 410.77L539.38 410.77L539.37 410.03L532.85 392.53L538.60 392.53L541.21 401.08Q541.56 402.20 541.79 403.33Q542.02 404.45 542.24 405.63L542.24 405.63Q542.51 404.44 542.81 403.31Q543.10 402.19 543.46 401.08L543.46 401.08L546.26 392.53L551.95 392.53L544.62 411.84Q543.82 413.97 542.24 415.31Q540.67 416.66 537.73 416.66L537.73 416.66Q535.62 416.66 534.26 416.13ZM565.90 410L560.45 410L560.45 392.53L565.46 392.53L565.71 396Q566.43 394.03 567.80 393.16Q569.17 392.30 570.74 392.30L570.74 392.30Q572.40 392.30 573.50 393.25Q574.60 394.20 575.24 396.34L575.24 396.34Q576.04 394.19 577.60 393.24Q579.15 392.30 580.92 392.30L580.92 392.30Q583.37 392.30 584.94 393.88Q586.51 395.45 586.51 398.22L586.51 398.22L586.51 410L581.06 410L581.06 399.45Q581.06 398.13 580.37 397.44Q579.68 396.75 578.60 396.75L578.60 396.75Q577.45 396.75 576.77 397.51Q576.10 398.27 576.10 399.52L576.10 399.52L576.10 410L570.87 410L570.87 399.38Q570.87 398.17 570.19 397.46Q569.51 396.75 568.43 396.75L568.43 396.75Q567.32 396.75 566.61 397.50Q565.90 398.25 565.90 399.63L565.90 399.63L565.90 410ZM597.91 410.33L597.91 410.33Q595.17 410.33 593.20 409.20Q591.24 408.06 590.18 406.04Q589.13 404.02 589.13 401.33L589.13 401.33Q589.13 398.64 590.18 396.61Q591.24 394.58 593.20 393.45Q595.17 392.31 597.91 392.31L597.91 392.31Q600.64 392.31 602.60 393.45Q604.56 394.58 605.62 396.61Q606.67 398.64 606.67 401.33L606.67 401.33Q606.67 404.02 605.62 406.04Q604.56 408.06 602.60 409.20Q600.64 410.33 597.91 410.33ZM597.91 406.16L597.91 406.16Q599.47 406.16 600.30 404.82Q601.13 403.48 601.13 401.30L601.13 401.30Q601.13 399.11 600.30 397.80Q599.47 396.48 597.91 396.48L597.91 396.48Q596.35 396.48 595.52 397.80Q594.69 399.11 594.69 401.30L594.69 401.30Q594.69 403.48 595.52 404.82Q596.35 406.16 597.91 406.16ZM620.48 410L614.17 410L607.84 392.53L613.59 392.53L616.20 401.08Q616.56 402.25 616.85 403.45Q617.13 404.66 617.42 405.92L617.42 405.92Q617.67 404.66 617.95 403.46Q618.23 402.27 618.59 401.08L618.59 401.08L621.15 392.53L626.84 392.53L620.48 410ZM634.11 410L628.66 410L628.66 392.53L634.11 392.53L634.11 410ZM631.38 390.48L631.38 390.48Q630.22 390.48 629.39 389.72Q628.56 388.95 628.56 387.86L628.56 387.86Q628.56 386.77 629.39 386Q630.22 385.23 631.38 385.23L631.38 385.23Q632.55 385.23 633.38 386Q634.21 386.77 634.21 387.86L634.21 387.86Q634.21 388.95 633.38 389.72Q632.55 390.48 631.38 390.48ZM645.54 410.33L645.54 410.33Q641.43 410.33 639.08 407.93Q636.73 405.53 636.73 401.33L636.73 401.33Q636.73 398.64 637.78 396.61Q638.84 394.58 640.78 393.45Q642.71 392.31 645.34 392.31L645.34 392.31Q647.79 392.31 649.69 393.34Q651.59 394.36 652.67 396.35Q653.76 398.34 653.76 401.22L653.76 401.22L653.76 402.59L642.09 402.59Q642.17 404.48 643.13 405.43Q644.09 406.38 645.64 406.38L645.64 406.38Q646.73 406.38 647.53 405.91Q648.32 405.45 648.65 404.58L648.65 404.58L653.51 405.38Q652.85 407.64 650.78 408.98Q648.71 410.33 645.54 410.33ZM642.12 399.42L642.12 399.42L648.59 399.42Q648.43 397.94 647.62 397.10Q646.81 396.27 645.39 396.27L645.39 396.27Q643.95 396.27 643.11 397.12Q642.28 397.97 642.12 399.42Z"/>

  <!-- Terminal-style install line -->
  <g>
    <rect x="100" y="480" width="540" height="48" rx="10" fill="#1a0b1f" stroke="#7c3aed" stroke-opacity="0.35" stroke-width="1"/>
    <path fill="#7c3aed" d="M119.93 514.20L118.07 514.20L118.07 510.24Q115.13 510 113.44 508.38Q111.74 506.76 111.71 504.12L111.71 504.12L115.46 504.12Q115.46 505.23 116.15 505.96Q116.84 506.70 118.07 506.94L118.07 506.94L118.07 500.58L117.53 500.43Q114.95 499.77 113.56 498.06Q112.16 496.35 112.16 493.92L112.16 493.92Q112.16 491.37 113.75 489.74Q115.34 488.10 118.07 487.86L118.07 487.86L118.07 483.90L119.93 483.90L119.93 487.83Q122.72 488.07 124.33 489.68Q125.93 491.28 125.96 493.83L125.96 493.83L122.21 493.83Q122.21 491.61 119.93 491.16L119.93 491.16L119.93 497.22L120.92 497.49Q123.53 498.15 124.91 499.85Q126.29 501.54 126.29 504.03L126.29 504.03Q126.29 506.64 124.56 508.33Q122.84 510.03 119.93 510.27L119.93 510.27L119.93 514.20ZM115.91 493.71L115.91 493.71Q115.91 494.76 116.47 495.54Q117.02 496.32 118.07 496.68L118.07 496.68L118.07 491.16Q115.91 491.58 115.91 493.71ZM119.93 501.18L119.93 506.97Q121.16 506.79 121.85 506.06Q122.54 505.32 122.54 504.18L122.54 504.18Q122.54 503.07 121.85 502.26Q121.16 501.45 119.93 501.18L119.93 501.18Z"/>
    <path fill="#fafafa" d="M144.06 510L140.31 510L140.31 493.50L143.97 493.50L143.97 496.59Q144.27 495.03 145.44 494.12Q146.61 493.20 148.41 493.20L148.41 493.20Q150.84 493.20 152.29 494.82Q153.75 496.44 153.75 499.17L153.75 499.17L153.75 510L150 510L150 499.62Q150 498.09 149.21 497.26Q148.41 496.44 147.06 496.44L147.06 496.44Q145.65 496.44 144.85 497.28Q144.06 498.12 144.06 499.68L144.06 499.68L144.06 510ZM162.06 515.40L158.31 515.40L158.31 493.50L161.97 493.50L161.97 496.53Q162.42 494.97 163.59 494.08Q164.76 493.20 166.50 493.20L166.50 493.20Q168.09 493.20 169.31 493.98Q170.52 494.76 171.19 496.19Q171.87 497.61 171.87 499.50L171.87 499.50L171.87 503.97Q171.87 506.82 170.40 508.56Q168.93 510.30 166.50 510.30L166.50 510.30Q164.76 510.30 163.57 509.40Q162.39 508.50 161.94 506.88L161.94 506.88L162.06 510.78L162.06 515.40ZM165.09 507.06L165.09 507.06Q166.53 507.06 167.32 506.28Q168.12 505.50 168.12 503.88L168.12 503.88L168.12 499.62Q168.12 498 167.32 497.22Q166.53 496.44 165.09 496.44L165.09 496.44Q163.65 496.44 162.85 497.31Q162.06 498.18 162.06 499.77L162.06 499.77L162.06 503.73Q162.06 505.32 162.85 506.19Q163.65 507.06 165.09 507.06ZM178.71 510L175.41 510L175.41 493.50L178.53 493.50L178.53 495.90L178.62 495.90Q178.71 494.70 179.46 493.95Q180.21 493.20 181.35 493.20L181.35 493.20Q182.46 493.20 183.24 493.90Q184.02 494.61 184.29 495.81L184.29 495.81Q184.41 494.61 185.18 493.90Q185.94 493.20 187.11 493.20L187.11 493.20Q188.61 493.20 189.60 494.38Q190.59 495.57 190.59 497.43L190.59 497.43L190.59 510L187.29 510L187.29 497.70Q187.29 496.89 186.91 496.43Q186.54 495.96 185.85 495.96L185.85 495.96Q184.50 495.96 184.50 497.70L184.50 497.70L184.50 510L181.50 510L181.50 497.70Q181.50 496.89 181.16 496.43Q180.81 495.96 180.15 495.96L180.15 495.96Q178.71 495.96 178.71 497.70L178.71 497.70L178.71 510ZM226.74 510L212.28 510L212.28 506.61L217.92 506.61L217.92 496.89L212.88 496.89L212.88 493.50L221.67 493.50L221.67 506.61L226.74 506.61L226.74 510ZM219.54 490.74L219.54 490.74Q218.40 490.74 217.74 490.15Q217.08 489.57 217.08 488.58L217.08 488.58Q217.08 487.59 217.74 487.00Q218.40 486.42 219.54 486.42L219.54 486.42Q220.68 486.42 221.34 487.00Q222 487.59 222 488.58L222 488.58Q222 489.57 221.34 490.15Q220.68 490.74 219.54 490.74ZM234.06 510L230.31 510L230.31 493.50L233.97 493.50L233.97 496.59Q234.27 495.03 235.44 494.12Q236.61 493.20 238.41 493.20L238.41 493.20Q240.84 493.20 242.29 494.82Q243.75 496.44 243.75 499.17L243.75 499.17L243.75 510L240 510L240 499.62Q240 498.09 239.21 497.26Q238.41 496.44 237.06 496.44L237.06 496.44Q235.65 496.44 234.85 497.28Q234.06 498.12 234.06 499.68L234.06 499.68L234.06 510ZM255.63 510.27L254.31 510.27Q251.37 510.27 249.66 508.94Q247.95 507.60 247.95 505.32L247.95 505.32L251.64 505.32Q251.64 506.28 252.34 506.79Q253.05 507.30 254.31 507.30L254.31 507.30L255.63 507.30Q256.98 507.30 257.71 506.79Q258.45 506.28 258.45 505.32L258.45 505.32Q258.45 504.42 257.94 503.99Q257.43 503.55 256.38 503.40L256.38 503.40L252.27 502.86Q250.29 502.59 249.22 501.33Q248.16 500.07 248.16 498.06L248.16 498.06Q248.16 495.72 249.72 494.48Q251.28 493.23 254.22 493.23L254.22 493.23L255.60 493.23Q258.36 493.23 260.04 494.49Q261.72 495.75 261.78 497.85L261.78 497.85L258.06 497.85Q258.03 497.07 257.37 496.61Q256.71 496.14 255.60 496.14L255.60 496.14L254.22 496.14Q253.02 496.14 252.39 496.63Q251.76 497.13 251.76 497.97L251.76 497.97Q251.76 498.72 252.22 499.08Q252.69 499.44 253.59 499.53L253.59 499.53L257.46 500.07Q259.74 500.34 260.89 501.68Q262.05 503.01 262.05 505.26L262.05 505.26Q262.05 507.66 260.42 508.96Q258.78 510.27 255.63 510.27L255.63 510.27ZM279.81 510L274.65 510Q272.34 510 270.98 508.67Q269.61 507.33 269.61 505.05L269.61 505.05L269.61 496.89L265.05 496.89L265.05 493.50L269.61 493.50L269.61 488.85L273.39 488.85L273.39 493.50L279.96 493.50L279.96 496.89L273.39 496.89L273.39 504.96Q273.39 505.68 273.80 506.14Q274.20 506.61 274.92 506.61L274.92 506.61L279.81 506.61L279.81 510ZM289.17 510.30L289.17 510.30Q286.65 510.30 285.19 508.88Q283.74 507.45 283.74 505.14L283.74 505.14Q283.74 502.74 285.39 501.31Q287.04 499.89 289.92 499.89L289.92 499.89L293.94 499.89L293.94 498.72Q293.94 496.23 291.03 496.23L291.03 496.23Q289.71 496.23 288.93 496.74Q288.15 497.25 288.06 498.18L288.06 498.18L284.46 498.18Q284.58 495.96 286.33 494.58Q288.09 493.20 291.06 493.20L291.06 493.20Q294.21 493.20 295.95 494.67Q297.69 496.14 297.69 498.81L297.69 498.81L297.69 510L294.03 510L294.03 506.91Q293.82 508.50 292.53 509.40Q291.24 510.30 289.17 510.30ZM290.37 507.24L290.37 507.24Q292.02 507.24 292.98 506.43Q293.94 505.62 293.94 504.27L293.94 504.27L293.94 502.32L290.10 502.32Q288.87 502.32 288.15 503.01Q287.43 503.70 287.43 504.78L287.43 504.78Q287.43 505.89 288.19 506.56Q288.96 507.24 290.37 507.24ZM316.77 510L311.67 510Q309.21 510 307.73 508.53Q306.24 507.06 306.24 504.66L306.24 504.66L306.24 491.49L300.81 491.49L300.81 488.10L309.99 488.10L309.99 504.57Q309.99 505.50 310.51 506.06Q311.04 506.61 311.94 506.61L311.94 506.61L316.77 506.61L316.77 510ZM334.77 510L329.67 510Q327.21 510 325.73 508.53Q324.24 507.06 324.24 504.66L324.24 504.66L324.24 491.49L318.81 491.49L318.81 488.10L327.99 488.10L327.99 504.57Q327.99 505.50 328.51 506.06Q329.04 506.61 329.94 506.61L329.94 506.61L334.77 506.61L334.77 510ZM358.71 510L355.41 510L355.41 493.50L358.53 493.50L358.53 495.90L358.62 495.90Q358.71 494.70 359.46 493.95Q360.21 493.20 361.35 493.20L361.35 493.20Q362.46 493.20 363.24 493.90Q364.02 494.61 364.29 495.81L364.29 495.81Q364.41 494.61 365.18 493.90Q365.94 493.20 367.11 493.20L367.11 493.20Q368.61 493.20 369.60 494.38Q370.59 495.57 370.59 497.43L370.59 497.43L370.59 510L367.29 510L367.29 497.70Q367.29 496.89 366.92 496.43Q366.54 495.96 365.85 495.96L365.85 495.96Q364.50 495.96 364.50 497.70L364.50 497.70L364.50 510L361.50 510L361.50 497.70Q361.50 496.89 361.15 496.43Q360.81 495.96 360.15 495.96L360.15 495.96Q358.71 495.96 358.71 497.70L358.71 497.70L358.71 510ZM381 510.27L381 510.27Q377.82 510.27 375.96 508.49Q374.10 506.70 374.10 503.67L374.10 503.67L374.10 499.83Q374.10 496.77 375.96 495Q377.82 493.23 381 493.23L381 493.23Q384.18 493.23 386.04 495Q387.90 496.77 387.90 499.83L387.90 499.83L387.90 503.67Q387.90 506.70 386.04 508.49Q384.18 510.27 381 510.27ZM381 507L381 507Q382.50 507 383.32 506.18Q384.15 505.35 384.15 503.79L384.15 503.79L384.15 499.71Q384.15 498.15 383.32 497.32Q382.50 496.50 381 496.50L381 496.50Q379.50 496.50 378.68 497.32Q377.85 498.15 377.85 499.71L377.85 499.71L377.85 503.79Q377.85 505.35 378.68 506.18Q379.50 507 381 507ZM401.40 510L396.63 510L391.08 493.50L395.01 493.50L398.19 503.52Q398.49 504.42 398.71 505.33Q398.94 506.25 399.03 506.91L399.03 506.91Q399.15 506.25 399.35 505.33Q399.54 504.42 399.81 503.55L399.81 503.55L402.96 493.50L406.92 493.50L401.40 510ZM424.74 510L410.28 510L410.28 506.61L415.92 506.61L415.92 496.89L410.88 496.89L410.88 493.50L419.67 493.50L419.67 506.61L424.74 506.61L424.74 510ZM417.54 490.74L417.54 490.74Q416.40 490.74 415.74 490.15Q415.08 489.57 415.08 488.58L415.08 488.58Q415.08 487.59 415.74 487.00Q416.40 486.42 417.54 486.42L417.54 486.42Q418.68 486.42 419.34 487.00Q420 487.59 420 488.58L420 488.58Q420 489.57 419.34 490.15Q418.68 490.74 417.54 490.74ZM435.03 510.30L435.03 510.30Q432.93 510.30 431.37 509.49Q429.81 508.68 428.95 507.19Q428.10 505.71 428.10 503.70L428.10 503.70L428.10 499.80Q428.10 497.79 428.95 496.31Q429.81 494.82 431.37 494.01Q432.93 493.20 435.03 493.20L435.03 493.20Q437.10 493.20 438.64 494.01Q440.19 494.82 441.05 496.27Q441.90 497.73 441.90 499.68L441.90 499.68L441.90 502.68L431.70 502.68L431.70 503.82Q431.70 505.50 432.57 506.36Q433.44 507.21 435.03 507.21L435.03 507.21Q436.20 507.21 437.02 506.81Q437.85 506.40 438 505.62L438 505.62L441.72 505.62Q441.33 507.75 439.50 509.02Q437.67 510.30 435.03 510.30ZM431.70 499.68L431.70 499.68L431.70 500.25L438.30 500.22L438.30 499.65Q438.30 497.94 437.46 497.01Q436.62 496.08 435.03 496.08L435.03 496.08Q433.38 496.08 432.54 497.02Q431.70 497.97 431.70 499.68ZM457.80 501.84L448.20 501.84L448.20 498.36L457.80 498.36L457.80 501.84ZM477.81 510L472.65 510Q470.34 510 468.98 508.67Q467.61 507.33 467.61 505.05L467.61 505.05L467.61 496.89L463.05 496.89L463.05 493.50L467.61 493.50L467.61 488.85L471.39 488.85L471.39 493.50L477.96 493.50L477.96 496.89L471.39 496.89L471.39 504.96Q471.39 505.68 471.80 506.14Q472.20 506.61 472.92 506.61L472.92 506.61L477.81 506.61L477.81 510ZM486.66 510L482.91 510L482.91 493.50L486.57 493.50L486.57 496.71Q486.87 495.09 488.06 494.14Q489.24 493.20 491.13 493.20L491.13 493.20Q493.65 493.20 495.06 494.82Q496.47 496.44 496.47 499.35L496.47 499.35L496.47 500.91L492.72 500.91L492.72 499.53Q492.72 498.03 491.94 497.24Q491.16 496.44 489.72 496.44L489.72 496.44Q488.22 496.44 487.44 497.34Q486.66 498.24 486.66 499.89L486.66 499.89L486.66 510ZM505.17 510.30L505.17 510.30Q502.65 510.30 501.19 508.88Q499.74 507.45 499.74 505.14L499.74 505.14Q499.74 502.74 501.39 501.31Q503.04 499.89 505.92 499.89L505.92 499.89L509.94 499.89L509.94 498.72Q509.94 496.23 507.03 496.23L507.03 496.23Q505.71 496.23 504.93 496.74Q504.15 497.25 504.06 498.18L504.06 498.18L500.46 498.18Q500.58 495.96 502.33 494.58Q504.09 493.20 507.06 493.20L507.06 493.20Q510.21 493.20 511.95 494.67Q513.69 496.14 513.69 498.81L513.69 498.81L513.69 510L510.03 510L510.03 506.91Q509.82 508.50 508.53 509.40Q507.24 510.30 505.17 510.30ZM506.37 507.24L506.37 507.24Q508.02 507.24 508.98 506.43Q509.94 505.62 509.94 504.27L509.94 504.27L509.94 502.32L506.10 502.32Q504.87 502.32 504.15 503.01Q503.43 503.70 503.43 504.78L503.43 504.78Q503.43 505.89 504.19 506.56Q504.96 507.24 506.37 507.24ZM532.74 510L518.28 510L518.28 506.61L523.92 506.61L523.92 496.89L518.88 496.89L518.88 493.50L527.67 493.50L527.67 506.61L532.74 506.61L532.74 510ZM525.54 490.74L525.54 490.74Q524.40 490.74 523.74 490.15Q523.08 489.57 523.08 488.58L523.08 488.58Q523.08 487.59 523.74 487.00Q524.40 486.42 525.54 486.42L525.54 486.42Q526.68 486.42 527.34 487.00Q528 487.59 528 488.58L528 488.58Q528 489.57 527.34 490.15Q526.68 490.74 525.54 490.74ZM550.77 510L545.67 510Q543.21 510 541.73 508.53Q540.24 507.06 540.24 504.66L540.24 504.66L540.24 491.49L534.81 491.49L534.81 488.10L543.99 488.10L543.99 504.57Q543.99 505.50 544.51 506.06Q545.04 506.61 545.94 506.61L545.94 506.61L550.77 506.61L550.77 510ZM561.03 510.30L561.03 510.30Q558.93 510.30 557.37 509.49Q555.81 508.68 554.96 507.19Q554.10 505.71 554.10 503.70L554.10 503.70L554.10 499.80Q554.10 497.79 554.96 496.31Q555.81 494.82 557.37 494.01Q558.93 493.20 561.03 493.20L561.03 493.20Q563.10 493.20 564.64 494.01Q566.19 494.82 567.04 496.27Q567.90 497.73 567.90 499.68L567.90 499.68L567.90 502.68L557.70 502.68L557.70 503.82Q557.70 505.50 558.57 506.36Q559.44 507.21 561.03 507.21L561.03 507.21Q562.20 507.21 563.02 506.81Q563.85 506.40 564 505.62L564 505.62L567.72 505.62Q567.33 507.75 565.50 509.02Q563.67 510.30 561.03 510.30ZM557.70 499.68L557.70 499.68L557.70 500.25L564.30 500.22L564.30 499.65Q564.30 497.94 563.46 497.01Q562.62 496.08 561.03 496.08L561.03 496.08Q559.38 496.08 558.54 497.02Q557.70 497.97 557.70 499.68ZM576.66 510L572.91 510L572.91 493.50L576.57 493.50L576.57 496.71Q576.87 495.09 578.05 494.14Q579.24 493.20 581.13 493.20L581.13 493.20Q583.65 493.20 585.06 494.82Q586.47 496.44 586.47 499.35L586.47 499.35L586.47 500.91L582.72 500.91L582.72 499.53Q582.72 498.03 581.94 497.24Q581.16 496.44 579.72 496.44L579.72 496.44Q578.22 496.44 577.44 497.34Q576.66 498.24 576.66 499.89L576.66 499.89L576.66 510Z"/>
  </g>

  <path fill="#6b6275" d="M928.19 577.45L931.60 577.45L931.60 592L928.19 592L928.19 577.45ZM936.91 592.20L936.91 592.20Q935.34 592.20 934.33 591.39Q933.32 590.59 933.32 588.97L933.32 588.97Q933.32 587.76 933.87 587.05Q934.43 586.34 935.35 585.99Q936.28 585.65 937.38 585.55L937.38 585.55Q938.77 585.44 939.37 585.27Q939.97 585.10 939.97 584.59L939.97 584.59L939.97 584.55Q939.97 583.98 939.57 583.67Q939.18 583.37 938.48 583.37L938.48 583.37Q937.77 583.37 937.31 583.67Q936.85 583.97 936.71 584.49L936.71 584.49L933.63 584.09Q933.95 582.69 935.21 581.82Q936.46 580.95 938.51 580.95L938.51 580.95Q939.87 580.95 940.97 581.37Q942.07 581.79 942.72 582.60Q943.37 583.42 943.37 584.59L943.37 584.59L943.37 592L940.16 592L940.16 590.47L940.07 590.47Q939.17 592.20 936.91 592.20ZM937.95 589.94L937.95 589.94Q938.80 589.94 939.40 589.43Q940.00 588.92 940.00 588.11L940.00 588.11L940.00 587.07Q939.70 587.22 939.15 587.33Q938.59 587.44 938.11 587.52L938.11 587.52Q936.54 587.75 936.54 588.82L936.54 588.82Q936.54 589.36 936.93 589.65Q937.33 589.94 937.95 589.94ZM950.69 592.21L950.69 592.21Q948.98 592.21 947.75 591.50Q946.52 590.79 945.86 589.52Q945.20 588.26 945.20 586.58L945.20 586.58Q945.20 584.90 945.86 583.63Q946.52 582.36 947.75 581.65Q948.98 580.95 950.69 580.95L950.69 580.95Q952.78 580.95 954.12 581.99Q955.46 583.04 955.72 584.82L955.72 584.82L952.57 585.35Q952.41 584.49 951.94 584.02Q951.48 583.55 950.73 583.55L950.73 583.55Q949.75 583.55 949.21 584.35Q948.68 585.14 948.68 586.56L948.68 586.56Q948.68 587.97 949.21 588.78Q949.75 589.60 950.73 589.60L950.73 589.60Q951.48 589.60 951.95 589.11Q952.43 588.62 952.58 587.74L952.58 587.74L955.73 588.25Q955.47 590.09 954.14 591.15Q952.80 592.21 950.69 592.21ZM957.50 595.83L957.50 595.83L958.26 593.34L958.69 593.46Q959.61 593.70 960.17 593.43Q960.74 593.15 960.70 592.48L960.70 592.48L960.69 592.02L956.62 581.08L960.21 581.08L961.84 586.42Q962.06 587.13 962.20 587.83Q962.35 588.53 962.49 589.27L962.49 589.27Q962.65 588.52 962.84 587.82Q963.02 587.12 963.25 586.42L963.25 586.42L965.00 581.08L968.55 581.08L963.97 593.15Q963.47 594.48 962.49 595.32Q961.50 596.16 959.66 596.16L959.66 596.16Q958.35 596.16 957.50 595.83ZM973.30 592L969.89 592L969.89 581.08L973.02 581.08L973.18 583.25Q973.63 582.02 974.48 581.48Q975.34 580.94 976.32 580.94L976.32 580.94Q977.36 580.94 978.05 581.53Q978.74 582.13 979.14 583.46L979.14 583.46Q979.63 582.12 980.61 581.53Q981.58 580.94 982.68 580.94L982.68 580.94Q984.21 580.94 985.20 581.92Q986.18 582.91 986.18 584.64L986.18 584.64L986.18 592L982.77 592L982.77 585.41Q982.77 584.58 982.34 584.15Q981.91 583.72 981.24 583.72L981.24 583.72Q980.51 583.72 980.09 584.19Q979.67 584.67 979.67 585.45L979.67 585.45L979.67 592L976.40 592L976.40 585.36Q976.40 584.61 975.98 584.16Q975.55 583.72 974.88 583.72L974.88 583.72Q974.19 583.72 973.74 584.19Q973.30 584.66 973.30 585.52L973.30 585.52L973.30 592ZM993.50 592.21L993.50 592.21Q991.79 592.21 990.56 591.50Q989.33 590.79 988.67 589.52Q988.01 588.26 988.01 586.58L988.01 586.58Q988.01 584.90 988.67 583.63Q989.33 582.36 990.56 581.65Q991.79 580.95 993.50 580.95L993.50 580.95Q995.21 580.95 996.44 581.65Q997.66 582.36 998.32 583.63Q998.98 584.90 998.98 586.58L998.98 586.58Q998.98 588.26 998.32 589.52Q997.66 590.79 996.44 591.50Q995.21 592.21 993.50 592.21ZM993.50 589.60L993.50 589.60Q994.48 589.60 995.00 588.76Q995.51 587.93 995.51 586.56L995.51 586.56Q995.51 585.19 995.00 584.37Q994.48 583.55 993.50 583.55L993.50 583.55Q992.53 583.55 992.01 584.37Q991.49 585.19 991.49 586.56L991.49 586.56Q991.49 587.93 992.01 588.76Q992.53 589.60 993.50 589.60ZM1004.22 592L1000.82 592L1000.82 581.08L1004.13 581.08L1004.13 583.07L1004.24 583.07Q1004.54 582 1005.22 581.47Q1005.89 580.95 1006.79 580.95L1006.79 580.95Q1007.29 580.95 1007.76 581.06L1007.76 581.06L1007.76 584.03Q1007.52 583.94 1007.12 583.90Q1006.72 583.86 1006.41 583.86L1006.41 583.86Q1005.46 583.86 1004.84 584.46Q1004.22 585.07 1004.22 586.04L1004.22 586.04L1004.22 592ZM1012.62 592L1009.21 592L1009.21 581.08L1012.53 581.08L1012.53 583.07L1012.64 583.07Q1012.94 582 1013.61 581.47Q1014.29 580.95 1015.19 580.95L1015.19 580.95Q1015.69 580.95 1016.16 581.06L1016.16 581.06L1016.16 584.03Q1015.91 583.94 1015.52 583.90Q1015.12 583.86 1014.81 583.86L1014.81 583.86Q1013.86 583.86 1013.24 584.46Q1012.62 585.07 1012.62 586.04L1012.62 586.04L1012.62 592ZM1022.68 592.21L1022.68 592.21Q1020.97 592.21 1019.74 591.50Q1018.51 590.79 1017.85 589.52Q1017.19 588.26 1017.19 586.58L1017.19 586.58Q1017.19 584.90 1017.85 583.63Q1018.51 582.36 1019.74 581.65Q1020.97 580.95 1022.68 580.95L1022.68 580.95Q1024.39 580.95 1025.62 581.65Q1026.84 582.36 1027.50 583.63Q1028.16 584.90 1028.16 586.58L1028.16 586.58Q1028.16 588.26 1027.50 589.52Q1026.84 590.79 1025.62 591.50Q1024.39 592.21 1022.68 592.21ZM1022.68 589.60L1022.68 589.60Q1023.66 589.60 1024.18 588.76Q1024.69 587.93 1024.69 586.56L1024.69 586.56Q1024.69 585.19 1024.18 584.37Q1023.66 583.55 1022.68 583.55L1022.68 583.55Q1021.71 583.55 1021.19 584.37Q1020.67 585.19 1020.67 586.56L1020.67 586.56Q1020.67 587.93 1021.19 588.76Q1021.71 589.60 1022.68 589.60ZM1035.68 592L1032.20 592L1029.02 581.08L1032.58 581.08L1033.38 584.82Q1033.57 585.75 1033.79 586.79Q1034 587.82 1034.21 589.00L1034.21 589.00Q1034.42 587.83 1034.66 586.79Q1034.91 585.75 1035.12 584.82L1035.12 584.82L1035.99 581.08L1039.02 581.08L1039.86 584.82Q1040.06 585.76 1040.31 586.79Q1040.55 587.83 1040.78 589.02L1040.78 589.02Q1040.96 587.84 1041.17 586.80Q1041.37 585.76 1041.57 584.82L1041.57 584.82L1042.36 581.08L1045.98 581.08L1042.77 592L1039.29 592L1038.16 588.08Q1037.99 587.49 1037.82 586.67Q1037.65 585.86 1037.49 585.07L1037.49 585.07Q1037.32 585.86 1037.15 586.67Q1036.99 587.49 1036.81 588.08L1036.81 588.08L1035.68 592ZM1051.01 576.77L1053.92 576.77L1049.23 594.19L1046.32 594.19L1051.01 576.77ZM1058.66 592L1055.25 592L1055.25 581.08L1058.38 581.08L1058.54 583.25Q1058.99 582.02 1059.84 581.48Q1060.70 580.94 1061.69 580.94L1061.69 580.94Q1062.72 580.94 1063.41 581.53Q1064.10 582.13 1064.50 583.46L1064.50 583.46Q1065.00 582.12 1065.97 581.53Q1066.94 580.94 1068.04 580.94L1068.04 580.94Q1069.58 580.94 1070.56 581.92Q1071.54 582.91 1071.54 584.64L1071.54 584.64L1071.54 592L1068.13 592L1068.13 585.41Q1068.13 584.58 1067.70 584.15Q1067.27 583.72 1066.60 583.72L1066.60 583.72Q1065.88 583.72 1065.46 584.19Q1065.04 584.67 1065.04 585.45L1065.04 585.45L1065.04 592L1061.76 592L1061.76 585.36Q1061.76 584.61 1061.34 584.16Q1060.91 583.72 1060.24 583.72L1060.24 583.72Q1059.55 583.72 1059.10 584.19Q1058.66 584.66 1058.66 585.52L1058.66 585.52L1058.66 592ZM1078.86 592.21L1078.86 592.21Q1077.15 592.21 1075.92 591.50Q1074.69 590.79 1074.03 589.52Q1073.38 588.26 1073.38 586.58L1073.38 586.58Q1073.38 584.90 1074.03 583.63Q1074.69 582.36 1075.92 581.65Q1077.15 580.95 1078.86 580.95L1078.86 580.95Q1080.57 580.95 1081.80 581.65Q1083.02 582.36 1083.68 583.63Q1084.34 584.90 1084.34 586.58L1084.34 586.58Q1084.34 588.26 1083.68 589.52Q1083.02 590.79 1081.80 591.50Q1080.57 592.21 1078.86 592.21ZM1078.86 589.60L1078.86 589.60Q1079.84 589.60 1080.36 588.76Q1080.88 587.93 1080.88 586.56L1080.88 586.56Q1080.88 585.19 1080.36 584.37Q1079.84 583.55 1078.86 583.55L1078.86 583.55Q1077.89 583.55 1077.37 584.37Q1076.85 585.19 1076.85 586.56L1076.85 586.56Q1076.85 587.93 1077.37 588.76Q1077.89 589.60 1078.86 589.60ZM1093.17 592L1089.22 592L1085.27 581.08L1088.86 581.08L1090.49 586.42Q1090.72 587.16 1090.90 587.91Q1091.08 588.66 1091.26 589.45L1091.26 589.45Q1091.41 588.66 1091.59 587.91Q1091.76 587.17 1091.99 586.42L1091.99 586.42L1093.59 581.08L1097.14 581.08L1093.17 592ZM1101.89 592L1098.48 592L1098.48 581.08L1101.89 581.08L1101.89 592ZM1100.18 579.80L1100.18 579.80Q1099.46 579.80 1098.94 579.32Q1098.42 578.85 1098.42 578.16L1098.42 578.16Q1098.42 577.48 1098.94 577Q1099.46 576.52 1100.18 576.52L1100.18 576.52Q1100.91 576.52 1101.43 577Q1101.95 577.48 1101.95 578.16L1101.95 578.16Q1101.95 578.85 1101.43 579.32Q1100.91 579.80 1100.18 579.80ZM1109.23 592.21L1109.23 592.21Q1106.67 592.21 1105.20 590.71Q1103.73 589.21 1103.73 586.58L1103.73 586.58Q1103.73 584.90 1104.39 583.63Q1105.04 582.36 1106.26 581.65Q1107.47 580.95 1109.11 580.95L1109.11 580.95Q1110.64 580.95 1111.83 581.58Q1113.01 582.22 1113.69 583.47Q1114.37 584.71 1114.37 586.51L1114.37 586.51L1114.37 587.37L1107.08 587.37Q1107.13 588.55 1107.73 589.14Q1108.33 589.73 1109.29 589.73L1109.29 589.73Q1109.98 589.73 1110.47 589.45Q1110.97 589.16 1111.18 588.61L1111.18 588.61L1114.21 589.11Q1113.80 590.53 1112.51 591.37Q1111.22 592.21 1109.23 592.21ZM1107.10 585.39L1107.10 585.39L1111.14 585.39Q1111.04 584.46 1110.53 583.94Q1110.03 583.42 1109.14 583.42L1109.14 583.42Q1108.24 583.42 1107.72 583.95Q1107.19 584.48 1107.10 585.39ZM1116.39 584.79L1123.10 584.79L1123.10 587.42L1116.39 587.42L1116.39 584.79ZM1129.51 581.08L1131.47 581.08L1131.47 583.61L1129.51 583.61L1129.51 588.66Q1129.51 589.51 1130.38 589.51L1130.38 589.51Q1130.55 589.51 1130.87 589.47Q1131.19 589.42 1131.32 589.39L1131.32 589.39L1131.76 591.87Q1131.19 592.04 1130.65 592.10Q1130.11 592.16 1129.63 592.16L1129.63 592.16Q1127.90 592.16 1127.00 591.34Q1126.10 590.53 1126.10 588.96L1126.10 588.96L1126.10 583.61L1124.65 583.61L1124.65 581.08L1126.10 581.08L1126.10 578.48L1129.51 578.48L1129.51 581.08ZM1136.63 592L1133.22 592L1133.22 581.08L1136.53 581.08L1136.53 583.07L1136.65 583.07Q1136.94 582 1137.62 581.47Q1138.30 580.95 1139.20 580.95L1139.20 580.95Q1139.69 580.95 1140.16 581.06L1140.16 581.06L1140.16 584.03Q1139.92 583.94 1139.52 583.90Q1139.13 583.86 1138.81 583.86L1138.81 583.86Q1137.87 583.86 1137.25 584.46Q1136.63 585.07 1136.63 586.04L1136.63 586.04L1136.63 592ZM1144.67 592.20L1144.67 592.20Q1143.10 592.20 1142.09 591.39Q1141.08 590.59 1141.08 588.97L1141.08 588.97Q1141.08 587.76 1141.64 587.05Q1142.19 586.34 1143.12 585.99Q1144.04 585.65 1145.14 585.55L1145.14 585.55Q1146.53 585.44 1147.13 585.27Q1147.73 585.10 1147.73 584.59L1147.73 584.59L1147.73 584.55Q1147.73 583.98 1147.33 583.67Q1146.94 583.37 1146.25 583.37L1146.25 583.37Q1145.53 583.37 1145.07 583.67Q1144.62 583.97 1144.48 584.49L1144.48 584.49L1141.39 584.09Q1141.71 582.69 1142.97 581.82Q1144.22 580.95 1146.28 580.95L1146.28 580.95Q1147.63 580.95 1148.73 581.37Q1149.83 581.79 1150.48 582.60Q1151.13 583.42 1151.13 584.59L1151.13 584.59L1151.13 592L1147.93 592L1147.93 590.47L1147.84 590.47Q1146.93 592.20 1144.67 592.20ZM1145.71 589.94L1145.71 589.94Q1146.57 589.94 1147.16 589.43Q1147.76 588.92 1147.76 588.11L1147.76 588.11L1147.76 587.07Q1147.47 587.22 1146.91 587.33Q1146.35 587.44 1145.88 587.52L1145.88 587.52Q1144.30 587.75 1144.30 588.82L1144.30 588.82Q1144.30 589.36 1144.70 589.65Q1145.09 589.94 1145.71 589.94ZM1156.79 592L1153.38 592L1153.38 581.08L1156.79 581.08L1156.79 592ZM1155.08 579.80L1155.08 579.80Q1154.36 579.80 1153.84 579.32Q1153.33 578.85 1153.33 578.16L1153.33 578.16Q1153.33 577.48 1153.84 577Q1154.36 576.52 1155.08 576.52L1155.08 576.52Q1155.82 576.52 1156.33 577Q1156.85 577.48 1156.85 578.16L1156.85 578.16Q1156.85 578.85 1156.33 579.32Q1155.82 579.80 1155.08 579.80ZM1159.05 577.45L1162.46 577.45L1162.46 592L1159.05 592L1159.05 577.45ZM1169.80 592.21L1169.80 592.21Q1167.23 592.21 1165.76 590.71Q1164.29 589.21 1164.29 586.58L1164.29 586.58Q1164.29 584.90 1164.95 583.63Q1165.61 582.36 1166.82 581.65Q1168.03 580.95 1169.67 580.95L1169.67 580.95Q1171.21 580.95 1172.39 581.58Q1173.58 582.22 1174.26 583.47Q1174.94 584.71 1174.94 586.51L1174.94 586.51L1174.94 587.37L1167.64 587.37Q1167.69 588.55 1168.29 589.14Q1168.89 589.73 1169.86 589.73L1169.86 589.73Q1170.54 589.73 1171.04 589.45Q1171.54 589.16 1171.74 588.61L1171.74 588.61L1174.78 589.11Q1174.37 590.53 1173.08 591.37Q1171.78 592.21 1169.80 592.21ZM1167.66 585.39L1167.66 585.39L1171.71 585.39Q1171.61 584.46 1171.10 583.94Q1170.59 583.42 1169.70 583.42L1169.70 583.42Q1168.80 583.42 1168.28 583.95Q1167.76 584.48 1167.66 585.39ZM1180.13 592L1176.72 592L1176.72 581.08L1180.04 581.08L1180.04 583.07L1180.15 583.07Q1180.45 582 1181.12 581.47Q1181.80 580.95 1182.70 580.95L1182.70 580.95Q1183.20 580.95 1183.67 581.06L1183.67 581.06L1183.67 584.03Q1183.42 583.94 1183.03 583.90Q1182.63 583.86 1182.32 583.86L1182.32 583.86Q1181.37 583.86 1180.75 584.46Q1180.13 585.07 1180.13 586.04L1180.13 586.04L1180.13 592Z"/>
</svg>
